<svg width="404" height="347" viewBox="0 0 404 347" fill="none" xmlns="http://www.w3.org/2000/svg">
<path d="M277.312 210.324L277.997 218.081L242.253 262.312L240.582 264.369L91.819 292.913C86.8045 293.856 81.9615 290.556 80.9757 285.584L35.5026 48.575C34.5597 43.5605 37.8598 38.7175 42.8743 37.7318L232.781 4.08763C237.796 3.14473 242.639 6.44485 243.625 11.4165L277.312 210.324Z" fill="#0C0E1B" fill-opacity="0.15"/>
<path opacity="0.4" d="M307.571 36.5742L403.746 240.839L164.895 237.153L307.571 36.5742Z" fill="white" fill-opacity="0.5"/>
<path d="M280.656 306.156C277.827 326.471 259.098 340.615 238.783 337.786C223.096 335.6 211.053 323.943 207.71 309.371L244.44 263.94C245.94 263.983 247.483 264.069 248.983 264.283C269.341 267.112 283.484 285.841 280.656 306.156Z" fill="#3C4EBA"/>
<path d="M140.937 288.798L15.7897 260.34C13.4753 259.825 11.2038 261.283 10.6467 263.554L0.103353 309.97C-0.410953 312.284 1.04625 314.556 3.31776 315.113L128.465 343.571C130.78 344.086 133.051 342.628 133.608 340.357L144.152 293.941C144.709 291.627 143.252 289.312 140.937 288.798Z" fill="#0C0E1B" fill-opacity="0.15"/>
<path d="M278.342 222.067L246.026 262.012L242.212 262.354L78.6627 276.626C73.6053 277.055 69.0623 273.283 68.6337 268.226L47.6758 27.7883C47.2472 22.731 51.0188 18.2309 56.0761 17.7594L249.712 0.873042C254.769 0.444454 259.312 4.21602 259.741 9.27335L277.956 218.081L278.342 222.067Z" fill="white"/>
<path d="M137.423 44.3752L77.6354 49.6039C74.721 49.8611 72.1494 47.6753 71.8923 44.7609L71.7637 43.218C71.5066 40.3036 73.6923 37.7321 76.6067 37.4749L136.395 32.2461C139.309 31.989 141.881 34.1748 142.138 37.0892L142.266 38.6321C142.481 41.5036 140.338 44.118 137.423 44.3752Z" fill="#58A5FF"/>
<path d="M236.47 63.4035L79.9928 77.0326C77.0784 77.2897 74.5068 75.104 74.2497 72.1896L74.1211 70.6467C73.864 67.7323 76.0498 65.1607 78.9642 64.9036L235.442 51.2745C238.356 51.0173 240.927 53.2031 241.185 56.1175L241.313 57.6604C241.57 60.5748 239.385 63.1464 236.47 63.4035Z" fill="#CCCCFE"/>
<path d="M238.87 90.8762L82.3922 104.505C79.4778 104.762 76.9063 102.577 76.6492 99.6622L76.5206 98.1193C76.2634 95.2049 78.4492 92.6334 81.3636 92.3762L237.841 78.7471C240.755 78.49 243.327 80.6758 243.584 83.5902L243.713 85.1331C243.97 88.0475 241.784 90.619 238.87 90.8762Z" fill="#CCCCFE"/>
<path d="M241.269 118.392L84.7917 132.021C81.8773 132.278 79.3057 130.092 79.0486 127.178L78.92 125.635C78.6628 122.72 80.8486 120.149 83.763 119.892L240.24 106.263C243.155 106.006 245.726 108.191 245.983 111.106L246.112 112.649C246.369 115.52 244.183 118.135 241.269 118.392Z" fill="#CCCCFE"/>
<path d="M243.668 145.864L87.1911 159.494C84.2767 159.751 81.7051 157.565 81.448 154.65L81.3194 153.108C81.0622 150.193 83.2481 147.622 86.1624 147.365L242.64 133.735C245.554 133.478 248.126 135.664 248.383 138.578L248.511 140.121C248.769 142.993 246.583 145.607 243.668 145.864Z" fill="#CCCCFE"/>
<path d="M246.07 173.337L134.594 183.066C131.68 183.323 129.108 181.137 128.851 178.223L128.723 176.68C128.466 173.766 130.651 171.194 133.566 170.937L245.041 161.208C247.956 160.951 250.527 163.137 250.784 166.051L250.913 167.594C251.127 170.466 248.984 173.08 246.07 173.337Z" fill="#CCCCFE"/>
<path d="M248.469 200.809L91.9918 214.438C89.0774 214.695 86.5059 212.509 86.2487 209.595L86.1202 208.052C85.863 205.138 88.0488 202.566 90.9632 202.309L247.441 188.68C250.355 188.423 252.926 190.608 253.184 193.523L253.312 195.066C253.526 197.937 251.384 200.552 248.469 200.809Z" fill="#CCCCFE"/>
<path d="M250.87 228.281L94.3922 241.91C91.4778 242.168 88.9063 239.982 88.6492 237.067L88.5206 235.525C88.2634 232.61 90.4492 230.039 93.3636 229.781L249.841 216.152C252.755 215.895 255.327 218.081 255.584 220.995L255.713 222.538C255.927 225.41 253.784 228.024 250.87 228.281Z" fill="#CCCCFE"/>
<path d="M128.936 330.928L15.8316 311.342C9.83133 310.313 5.8026 304.57 6.83121 298.57L12.66 265.011C13.6886 259.011 19.4317 254.982 25.4319 256.011L138.536 275.597C144.536 276.626 148.565 282.369 147.536 288.369L141.708 321.928C140.679 327.928 134.979 331.957 128.936 330.928Z" fill="white"/>
<path d="M37.649 309.327C49.7208 309.327 59.507 299.541 59.507 287.469C59.507 275.397 49.7208 265.611 37.649 265.611C25.5772 265.611 15.791 275.397 15.791 287.469C15.791 299.541 25.5772 309.327 37.649 309.327Z" fill="white" fill-opacity="0.5"/>
<path d="M47.2491 301.612C47.1634 302.169 47.0348 302.726 46.8634 303.284C43.2204 305.212 38.9345 306.027 34.5629 305.255C30.1913 304.484 26.4197 302.298 23.6768 299.255C23.7196 298.698 23.7625 298.141 23.8482 297.541C25.0482 290.555 31.2628 285.754 37.7345 286.869C44.249 288.026 48.492 294.583 47.2491 301.612Z" fill="#CCCCFE"/>
<path opacity="0.3" d="M43.2114 284.503C44.068 279.558 42.5692 275.17 39.8638 274.701C37.1585 274.233 34.2709 277.861 33.4143 282.805C32.5577 287.75 34.0565 292.138 36.7619 292.606C39.4672 293.075 42.3548 289.447 43.2114 284.503Z" fill="#58A5FF"/>
<path d="M45.8078 282.187C46.6442 277.359 44.1837 272.902 40.3122 272.231C36.4407 271.56 32.6242 274.93 31.7878 279.758C30.9515 284.585 33.4119 289.043 37.2834 289.713C41.1549 290.384 44.9714 287.014 45.8078 282.187Z" fill="#CCCCFE"/>
<path d="M103.736 285.326L71.0348 279.669C69.7919 279.454 68.9348 278.254 69.1491 276.969L69.2776 276.283C69.4919 275.04 70.692 274.183 71.9777 274.397L104.679 280.055C105.922 280.269 106.779 281.469 106.565 282.755L106.436 283.44C106.222 284.683 104.979 285.54 103.736 285.326Z" fill="url(#paint0_linear)"/>
<path d="M135.581 302.555L69.0642 291.026C67.8213 290.812 66.9641 289.612 67.1784 288.326L67.307 287.64C67.5213 286.397 68.7213 285.54 70.0071 285.755L136.524 297.284C137.767 297.498 138.624 298.698 138.41 299.984L138.281 300.669C138.067 301.912 136.867 302.77 135.581 302.555Z" fill="#CCCCFE"/>
<path d="M133.78 313.099L67.2634 301.57C66.0205 301.356 65.1633 300.156 65.3776 298.87L65.5062 298.184C65.7205 296.941 66.9205 296.084 68.2063 296.298L134.723 307.827C135.966 308.042 136.823 309.242 136.609 310.528L136.48 311.213C136.223 312.456 135.023 313.313 133.78 313.099Z" fill="#CCCCFE"/>
<path d="M132.065 322.828L65.5485 311.299C64.3056 311.084 63.4485 309.884 63.6627 308.599L63.7913 307.913C64.0056 306.67 65.2057 305.813 66.4914 306.027L133.008 317.556C134.251 317.77 135.108 318.97 134.894 320.256L134.765 320.942C134.551 322.185 133.351 323.042 132.065 322.828Z" fill="#CCCCFE"/>
<path d="M366.675 112.778L278.343 222.068L246.027 262.012L177.325 347.001L175.182 345.286L242.213 262.355L278 218.082L364.532 111.021L366.675 112.778Z" fill="white"/>
<path d="M333.073 308.427L289.614 293.898C278.685 290.255 272.728 278.298 276.371 267.326L315.458 150.45C319.101 139.521 331.058 133.564 342.03 137.207L385.489 151.736C396.418 155.379 402.375 167.336 398.732 178.308L359.645 295.184C355.959 306.156 344.045 312.113 333.073 308.427Z" fill="#0C0E1B" fill-opacity="0.15"/>
<path d="M283.142 296.641C281.257 295.998 279.628 294.755 278.514 293.041C277.185 291.027 276.714 288.627 277.228 286.269L307.529 140.421C308.001 138.064 309.372 136.049 311.386 134.721C313.401 133.392 315.801 132.921 318.158 133.435L388.189 147.964C390.547 148.436 392.561 149.807 393.89 151.821C395.218 153.836 395.69 156.236 395.175 158.593L364.874 304.442C363.888 309.285 359.088 312.413 354.245 311.427L284.214 296.898C283.828 296.855 283.485 296.77 283.142 296.641ZM388.661 149.936C388.404 149.85 388.104 149.764 387.846 149.721L317.815 135.192C315.929 134.807 314.001 135.149 312.372 136.221C310.744 137.292 309.629 138.921 309.243 140.807L278.942 286.655C278.557 288.541 278.899 290.47 279.971 292.098C281.042 293.727 282.671 294.841 284.557 295.227L354.588 309.756L354.417 310.613L354.588 309.756C358.531 310.57 362.388 308.042 363.203 304.099L393.504 158.25C393.89 156.364 393.547 154.436 392.475 152.807C391.489 151.479 390.161 150.45 388.661 149.936Z" fill="white"/>
<path d="M317.797 143.505L274.076 274.227L357.322 302.069L401.043 171.347L317.797 143.505Z" fill="white"/>
<path d="M348.716 263.811L304.015 248.854C298.357 246.968 295.271 240.839 297.2 235.139L314.001 184.951C315.886 179.294 322.015 176.208 327.715 178.137L372.417 193.094C378.075 194.98 381.16 201.109 379.232 206.809L362.431 256.997C360.502 262.654 354.374 265.697 348.716 263.811Z" fill="white" fill-opacity="0.5"/>
<path d="M372.203 215.167L357.631 258.754C356.988 260.64 354.93 261.669 353.002 261.026L302.214 244.054C300.328 243.411 299.3 241.354 299.943 239.468L314.515 195.881C315.158 193.952 317.215 192.966 319.101 193.609L369.888 210.581C371.817 211.224 372.845 213.238 372.203 215.167Z" fill="#CCCCFE"/>
<path d="M362.816 243.196L357.631 258.754C356.988 260.64 354.93 261.668 353.002 261.025L302.214 244.053C300.328 243.41 299.3 241.353 299.943 239.467L304.914 224.553L322.744 215.895C325.572 214.524 328.958 215.938 329.944 218.938L335.387 235.31C335.901 236.896 337.658 237.667 339.201 237.024L348.159 233.253C350.516 232.267 353.259 232.824 354.973 234.71L362.816 243.196Z" fill="#58A5FF"/>
<path d="M323.174 190.995C325.967 190.995 328.231 188.73 328.231 185.937C328.231 183.144 325.967 180.88 323.174 180.88C320.38 180.88 318.116 183.144 318.116 185.937C318.116 188.73 320.38 190.995 323.174 190.995Z" fill="#CCCCFE"/>
<path d="M349.573 193.566L332.258 187.78C331.358 187.48 330.887 186.537 331.187 185.637L331.358 185.166C331.658 184.266 332.601 183.794 333.501 184.094L350.816 189.88C351.716 190.18 352.188 191.123 351.888 192.023L351.716 192.494C351.416 193.394 350.473 193.866 349.573 193.566Z" fill="#CCCCFE"/>
<path d="M366.801 205.48L330.414 193.308C329.514 193.008 329.042 192.065 329.342 191.165L329.514 190.694C329.814 189.794 330.757 189.322 331.657 189.622L368.044 201.794C368.944 202.094 369.415 203.037 369.115 203.937L368.944 204.409C368.644 205.266 367.658 205.78 366.801 205.48Z" fill="#CCCCFE"/>
<path d="M369.888 156.064L351.93 150.064C351.03 149.764 350.559 148.821 350.859 147.921L351.03 147.45C351.33 146.55 352.273 146.078 353.173 146.378L371.131 152.379C372.031 152.679 372.502 153.621 372.202 154.521L372.031 154.993C371.731 155.893 370.788 156.364 369.888 156.064Z" fill="white"/>
<path d="M353.774 282.755C353.345 283.998 352.445 284.983 351.331 285.541C350.216 286.098 348.888 286.226 347.645 285.798L291.543 267.026C289.014 266.168 287.642 263.468 288.5 260.94C288.928 259.697 289.828 258.711 290.943 258.154C292.057 257.597 293.343 257.468 294.628 257.897L350.731 276.669C353.259 277.483 354.631 280.226 353.774 282.755Z" fill="white" fill-opacity="0.5"/>
<path d="M333.286 270.84L330.243 279.969L291.585 267.026C289.056 266.168 287.684 263.468 288.542 260.94C288.97 259.697 289.87 258.711 290.985 258.154C292.099 257.597 293.385 257.468 294.67 257.897L333.286 270.84Z" fill="#CCCCFE"/>
<path d="M348.288 165.579L325.444 157.95C324.244 157.565 323.601 156.236 323.987 155.036L324.201 154.393C324.587 153.193 325.915 152.55 327.115 152.936L349.959 160.565C351.159 160.951 351.802 162.279 351.416 163.479L351.202 164.122C350.774 165.322 349.445 166.008 348.288 165.579Z" fill="#CCCCFE"/>
<path d="M370.36 184.994L321.801 168.75C320.601 168.365 319.959 167.036 320.344 165.836L320.559 165.193C320.944 163.993 322.273 163.35 323.473 163.736L372.032 179.979C373.232 180.365 373.875 181.694 373.489 182.894L373.275 183.537C372.889 184.737 371.56 185.379 370.36 184.994Z" fill="url(#paint1_linear)"/>
<path d="M282.113 296.298C279.285 316.613 260.555 330.757 240.24 327.928C226.697 326.042 215.897 317.085 211.011 305.299L221.897 291.798L228.497 283.612L235.269 275.212L240.926 268.226L245.983 261.968L251.898 254.64C271.442 258.197 284.856 276.541 282.113 296.298Z" fill="url(#paint2_linear)"/>
<path d="M261.243 307.228C259.442 308.728 257.428 309.714 255.157 310.271C252.885 310.828 250.271 310.957 247.228 310.699C243.456 310.314 240.113 309.456 237.327 308.171C234.499 306.885 232.227 305.256 230.47 303.285C228.713 301.313 227.556 299.085 226.913 296.556C226.27 294.027 226.27 291.413 226.87 288.67C227.256 286.913 227.813 285.241 228.498 283.613L221.898 291.799C221.812 293.47 221.941 295.056 222.241 296.642C222.755 299.556 223.913 302.213 225.627 304.613C227.341 307.013 229.698 309.028 232.613 310.742C235.527 312.457 238.956 313.699 242.856 314.514C245.47 315.071 247.913 315.328 250.271 315.328C252.585 315.328 254.728 315.028 256.699 314.514C258.671 313.957 260.471 313.185 262.1 312.114C263.728 311.042 265.1 309.756 266.3 308.214L261.243 307.228ZM268.743 283.527C268.271 281.041 267.328 278.812 265.871 276.755C264.414 274.698 262.528 272.984 260.214 271.569C257.857 270.155 255.199 269.126 252.156 268.483C248.471 267.712 244.956 267.583 241.613 268.183C241.399 268.226 241.185 268.269 240.97 268.312L235.313 275.298C235.999 274.827 236.684 274.441 237.413 274.098C239.299 273.198 241.442 272.598 243.756 272.384C246.07 272.169 248.513 272.341 251.128 272.898C253.657 273.455 255.885 274.269 257.771 275.384C259.657 276.498 261.114 277.827 262.228 279.37C263.343 280.913 264.071 282.584 264.457 284.427C264.8 286.27 264.8 288.156 264.414 290.084C263.943 292.399 262.957 294.37 261.542 296.127C260.128 297.842 258.628 299.128 256.999 299.942C255.414 300.756 254.171 301.099 253.314 300.928C253.056 300.885 252.842 300.713 252.714 300.456C252.585 300.199 252.542 299.899 252.628 299.556C252.714 299.213 252.971 298.527 253.399 297.456L260.685 281.084L254.385 279.755L253.228 282.284C252.328 279.841 250.485 278.341 247.613 277.698C245.128 277.184 242.685 277.441 240.413 278.598C238.099 279.712 236.17 281.384 234.541 283.57C232.956 285.756 231.884 288.113 231.37 290.599C230.856 292.999 230.941 295.142 231.67 296.985C232.399 298.827 233.47 300.328 235.013 301.356C236.556 302.385 238.27 302.942 240.156 302.985C242.042 303.028 243.799 302.47 245.47 301.399C245.513 302.385 245.813 303.199 246.456 303.799C247.099 304.399 248.042 304.828 249.328 305.085C251.556 305.556 253.742 305.513 255.885 304.999C258.028 304.485 259.957 303.542 261.757 302.17C263.514 300.842 265.014 299.213 266.214 297.327C267.414 295.442 268.228 293.427 268.7 291.284C269.171 288.627 269.214 286.013 268.743 283.527ZM250.442 288.67C250.099 290.384 249.413 292.056 248.428 293.77C247.442 295.485 246.242 296.813 244.87 297.756C243.499 298.699 242.042 299.042 240.542 298.699C239.256 298.442 238.313 297.713 237.713 296.513C237.156 295.313 237.027 293.77 237.456 291.884C237.842 290.041 238.527 288.284 239.513 286.656C240.499 285.027 241.656 283.784 243.028 282.97C244.399 282.113 245.77 281.855 247.185 282.155C247.871 282.284 248.471 282.584 248.985 282.927C249.499 283.313 249.885 283.784 250.142 284.384C250.442 284.984 250.614 285.627 250.656 286.356C250.656 287.041 250.614 287.856 250.442 288.67Z" fill="white"/>
<path d="M318.115 90.7907C325.405 90.7907 331.315 84.8806 331.315 77.5901C331.315 70.2997 325.405 64.3896 318.115 64.3896C310.824 64.3896 304.914 70.2997 304.914 77.5901C304.914 84.8806 310.824 90.7907 318.115 90.7907Z" fill="#58A5FF"/>
<defs>
<linearGradient id="paint0_linear" x1="68.2446" y1="274.88" x2="103.985" y2="291.623" gradientUnits="userSpaceOnUse">
<stop stop-color="#FFB932"/>
<stop offset="1" stop-color="#FFB040"/>
</linearGradient>
<linearGradient id="paint1_linear" x1="318.991" y1="164.631" x2="374.571" y2="183.606" gradientUnits="userSpaceOnUse">
<stop stop-color="#FFB932"/>
<stop offset="1" stop-color="#FFB040"/>
</linearGradient>
<linearGradient id="paint2_linear" x1="209.349" y1="258.092" x2="290.991" y2="268.978" gradientUnits="userSpaceOnUse">
<stop stop-color="#FFB932"/>
<stop offset="1" stop-color="#FFB040"/>
</linearGradient>
</defs>
</svg>
