<svg width="406" height="406" viewBox="0 0 406 406" fill="none" xmlns="http://www.w3.org/2000/svg">
<path opacity="0.15" d="M350.048 265.486C303.865 331.556 197.417 385.018 89.5736 340.485C-28.214 291.812 43.7876 104.941 76.2041 75.887C108.621 46.8327 191.771 32.1627 221.635 81.1206C251.498 130.079 312.699 105.576 356.281 133.298C399.862 161.02 379.435 223.459 350.048 265.486Z" fill="#58A5FF"/>
<path d="M268.023 332.27C264.795 325.504 259.08 320.243 252.07 317.584C245.059 314.925 237.293 315.073 230.389 317.997L225.124 307.054L224.014 304.786L222.792 302.249L221.444 299.457L207.393 270.086L200.193 254.988L198.242 250.864L167.427 186.237C163.806 187.98 160.563 190.42 157.885 193.417C155.207 196.415 153.146 199.91 151.82 203.705C150.495 207.499 149.93 211.518 150.159 215.531C150.388 219.544 151.406 223.472 153.154 227.091L181.066 285.771L181.304 286.31L185.46 295.064L187.775 299.822L203.222 331.953L204.538 334.745L204.856 335.411L205.553 336.822L216.75 360.072L216.909 359.993C220.929 366.094 227.092 370.465 234.18 372.242C241.268 374.019 248.764 373.072 255.188 369.588C261.611 366.104 266.493 360.338 268.87 353.428C271.247 346.518 270.945 338.968 268.023 332.27ZM248.786 359.549C245.347 361.208 241.433 361.602 237.733 360.662C234.032 359.723 230.78 357.509 228.549 354.41C227.985 353.645 227.496 352.827 227.09 351.968C226.94 351.621 226.808 351.266 226.694 350.905C225.141 347.105 225.096 342.856 226.57 339.024C228.044 335.192 230.924 332.068 234.624 330.288C234.861 330.161 235.115 330.098 235.353 329.987C235.543 329.878 235.745 329.792 235.956 329.733C239.877 328.243 244.223 328.327 248.084 329.966C251.945 331.606 255.023 334.675 256.674 338.532C258.325 342.389 258.421 346.734 256.942 350.66C255.463 354.585 252.523 357.787 248.738 359.596L248.786 359.549Z" fill="#5D607A"/>
<path opacity="0.2" d="M207.345 270.118L200.145 255.019L198.242 250.864L189.472 269.245L181.272 286.326L185.428 295.08L187.743 299.838L203.19 331.969L204.506 334.76L204.887 333.983L206.346 330.907L220.176 302.138L221.476 299.442L207.345 270.118Z" fill="black"/>
<path d="M368.937 60.3135H45.453C43.561 60.3135 42.0273 61.8472 42.0273 63.7391V250.293C42.0273 252.185 43.561 253.719 45.453 253.719H368.937C370.829 253.719 372.362 252.185 372.362 250.293V63.7391C372.362 61.8472 370.829 60.3135 368.937 60.3135Z" fill="#58A5FF"/>
<path d="M196.196 97.8047H56.8241C54.9321 97.8047 53.3984 99.3384 53.3984 101.23V212.785C53.3984 214.677 54.9321 216.211 56.8241 216.211H196.196C198.088 216.211 199.622 214.677 199.622 212.785V101.23C199.622 99.3384 198.088 97.8047 196.196 97.8047Z" fill="white"/>
<path d="M70.479 69.4805H55.1113C54.1653 69.4805 53.3984 70.2473 53.3984 71.1933V84.8324C53.3984 85.7783 54.1653 86.5452 55.1113 86.5452H70.479C71.4249 86.5452 72.1918 85.7783 72.1918 84.8324V71.1933C72.1918 70.2473 71.4249 69.4805 70.479 69.4805Z" fill="white"/>
<path d="M111.729 69.4805H96.3617C95.4158 69.4805 94.6489 70.2473 94.6489 71.1933V84.8324C94.6489 85.7783 95.4158 86.5452 96.3617 86.5452H111.729C112.675 86.5452 113.442 85.7783 113.442 84.8324V71.1933C113.442 70.2473 112.675 69.4805 111.729 69.4805Z" fill="white"/>
<path d="M152.996 69.4805H137.628C136.682 69.4805 135.915 70.2473 135.915 71.1933V84.8324C135.915 85.7783 136.682 86.5452 137.628 86.5452H152.996C153.942 86.5452 154.708 85.7783 154.708 84.8324V71.1933C154.708 70.2473 153.942 69.4805 152.996 69.4805Z" fill="white"/>
<path d="M194.246 69.4805H178.878C177.932 69.4805 177.165 70.2473 177.165 71.1933V84.8324C177.165 85.7783 177.932 86.5452 178.878 86.5452H194.246C195.192 86.5452 195.958 85.7783 195.958 84.8324V71.1933C195.958 70.2473 195.192 69.4805 194.246 69.4805Z" fill="white"/>
<path d="M235.512 69.4805H220.144C219.198 69.4805 218.431 70.2473 218.431 71.1933V84.8324C218.431 85.7783 219.198 86.5452 220.144 86.5452H235.512C236.458 86.5452 237.225 85.7783 237.225 84.8324V71.1933C237.225 70.2473 236.458 69.4805 235.512 69.4805Z" fill="white"/>
<path d="M276.762 69.4805H261.394C260.448 69.4805 259.682 70.2473 259.682 71.1933V84.8324C259.682 85.7783 260.448 86.5452 261.394 86.5452H276.762C277.708 86.5452 278.475 85.7783 278.475 84.8324V71.1933C278.475 70.2473 277.708 69.4805 276.762 69.4805Z" fill="white"/>
<path d="M318.012 69.4805H302.644C301.698 69.4805 300.932 70.2473 300.932 71.1933V84.8324C300.932 85.7783 301.698 86.5452 302.644 86.5452H318.012C318.958 86.5452 319.725 85.7783 319.725 84.8324V71.1933C319.725 70.2473 318.958 69.4805 318.012 69.4805Z" fill="white"/>
<path d="M359.278 69.4805H343.911C342.965 69.4805 342.198 70.2473 342.198 71.1933V84.8324C342.198 85.7783 342.965 86.5452 343.911 86.5452H359.278C360.224 86.5452 360.991 85.7783 360.991 84.8324V71.1933C360.991 70.2473 360.224 69.4805 359.278 69.4805Z" fill="white"/>
<path d="M70.479 227.487H55.1113C54.1653 227.487 53.3984 228.254 53.3984 229.2V242.839C53.3984 243.785 54.1653 244.552 55.1113 244.552H70.479C71.4249 244.552 72.1918 243.785 72.1918 242.839V229.2C72.1918 228.254 71.4249 227.487 70.479 227.487Z" fill="white"/>
<path d="M111.729 227.487H96.3617C95.4158 227.487 94.6489 228.254 94.6489 229.2V242.839C94.6489 243.785 95.4158 244.552 96.3617 244.552H111.729C112.675 244.552 113.442 243.785 113.442 242.839V229.2C113.442 228.254 112.675 227.487 111.729 227.487Z" fill="white"/>
<path d="M152.996 227.487H137.628C136.682 227.487 135.915 228.254 135.915 229.2V242.839C135.915 243.785 136.682 244.552 137.628 244.552H152.996C153.942 244.552 154.708 243.785 154.708 242.839V229.2C154.708 228.254 153.942 227.487 152.996 227.487Z" fill="white"/>
<path d="M194.246 227.487H178.878C177.932 227.487 177.165 228.254 177.165 229.2V242.839C177.165 243.785 177.932 244.552 178.878 244.552H194.246C195.192 244.552 195.958 243.785 195.958 242.839V229.2C195.958 228.254 195.192 227.487 194.246 227.487Z" fill="white"/>
<path d="M235.512 227.487H220.144C219.198 227.487 218.431 228.254 218.431 229.2V242.839C218.431 243.785 219.198 244.552 220.144 244.552H235.512C236.458 244.552 237.225 243.785 237.225 242.839V229.2C237.225 228.254 236.458 227.487 235.512 227.487Z" fill="white"/>
<path d="M276.762 227.487H261.394C260.448 227.487 259.682 228.254 259.682 229.2V242.839C259.682 243.785 260.448 244.552 261.394 244.552H276.762C277.708 244.552 278.475 243.785 278.475 242.839V229.2C278.475 228.254 277.708 227.487 276.762 227.487Z" fill="white"/>
<path d="M318.012 227.487H302.644C301.698 227.487 300.932 228.254 300.932 229.2V242.839C300.932 243.785 301.698 244.552 302.644 244.552H318.012C318.958 244.552 319.725 243.785 319.725 242.839V229.2C319.725 228.254 318.958 227.487 318.012 227.487Z" fill="white"/>
<path d="M359.278 227.487H343.911C342.965 227.487 342.198 228.254 342.198 229.2V242.839C342.198 243.785 342.965 244.552 343.911 244.552H359.278C360.224 244.552 360.991 243.785 360.991 242.839V229.2C360.991 228.254 360.224 227.487 359.278 227.487Z" fill="white"/>
<path d="M104.053 135.598V178.419C104.054 178.93 104.188 179.432 104.441 179.876C104.695 180.32 105.059 180.69 105.499 180.951C105.939 181.212 106.439 181.354 106.95 181.363C107.461 181.372 107.966 181.248 108.415 181.004L147.619 159.578C148.082 159.323 148.468 158.949 148.737 158.494C149.006 158.04 149.148 157.521 149.148 156.993C149.148 156.464 149.006 155.946 148.737 155.491C148.468 155.036 148.082 154.662 147.619 154.407L108.415 132.997C107.965 132.752 107.458 132.628 106.946 132.638C106.433 132.648 105.932 132.791 105.492 133.054C105.052 133.317 104.688 133.689 104.435 134.135C104.183 134.582 104.051 135.086 104.053 135.598Z" fill="#58A5FF"/>
<path d="M357.582 97.8047H218.209C216.317 97.8047 214.784 99.3384 214.784 101.23V212.785C214.784 214.677 216.317 216.211 218.209 216.211H357.582C359.473 216.211 361.007 214.677 361.007 212.785V101.23C361.007 99.3384 359.473 97.8047 357.582 97.8047Z" fill="white"/>
<path d="M265.438 135.598V178.419C265.439 178.93 265.573 179.432 265.827 179.876C266.08 180.32 266.444 180.69 266.884 180.951C267.324 181.212 267.824 181.354 268.335 181.363C268.846 181.372 269.351 181.248 269.8 181.004L308.988 159.578C309.451 159.323 309.837 158.949 310.106 158.494C310.375 158.04 310.517 157.521 310.517 156.993C310.517 156.464 310.375 155.946 310.106 155.491C309.837 155.036 309.451 154.662 308.988 154.407L269.8 132.997C269.35 132.752 268.844 132.628 268.331 132.638C267.819 132.648 267.318 132.791 266.877 133.054C266.437 133.317 266.073 133.689 265.821 134.135C265.568 134.582 265.437 135.086 265.438 135.598Z" fill="#58A5FF"/>
<path d="M148.681 371.189C155.202 374.332 162.659 374.936 169.601 372.884C176.543 370.832 182.473 366.271 186.236 360.088L186.395 360.183L197.592 336.933L198.274 335.521L199.86 332.064L215.307 299.933L217.606 295.175L222.031 285.786L249.928 227.107C251.676 223.483 252.693 219.551 252.919 215.534C253.145 211.517 252.575 207.495 251.244 203.698C249.931 199.898 247.874 196.397 245.191 193.401C242.509 190.406 239.256 187.976 235.623 186.253L202.889 255.019L195.705 270.101L180.289 302.28L179.068 304.818L177.974 307.086L172.677 318.028C165.643 314.96 157.682 314.787 150.522 317.548C143.361 320.309 137.577 325.781 134.424 332.778C131.271 339.775 131.003 347.732 133.678 354.926C136.353 362.119 141.755 367.968 148.713 371.205L148.681 371.189ZM146.651 337.884C148.415 334.225 151.486 331.359 155.258 329.85C159.029 328.341 163.23 328.299 167.031 329.733L167.633 329.971C167.887 330.097 168.125 330.177 168.363 330.288C172.062 332.067 174.943 335.192 176.417 339.024C177.89 342.855 177.846 347.105 176.293 350.905C176.15 351.238 176.086 351.603 175.896 351.968C173.932 355.699 170.595 358.522 166.589 359.839C162.583 361.156 158.221 360.865 154.426 359.027C150.631 357.189 147.698 353.948 146.247 349.988C144.797 346.028 144.942 341.66 146.651 337.805V337.884Z" fill="#5D607A"/>
<path d="M207.203 294.795C207.203 293.829 206.916 292.884 206.38 292.081C205.843 291.278 205.08 290.652 204.188 290.282C203.295 289.912 202.313 289.816 201.365 290.004C200.418 290.192 199.547 290.658 198.864 291.341C198.181 292.024 197.716 292.894 197.527 293.842C197.339 294.789 197.436 295.772 197.805 296.664C198.175 297.557 198.801 298.32 199.604 298.856C200.408 299.393 201.352 299.68 202.318 299.68C203.614 299.68 204.856 299.165 205.772 298.249C206.688 297.333 207.203 296.09 207.203 294.795Z" fill="white"/>
</svg>
