<svg width="53" height="33" viewBox="0 0 53 33" fill="none" xmlns="http://www.w3.org/2000/svg">
<path fill-rule="evenodd" clip-rule="evenodd" d="M26.1228 28.2621C23.3559 30.6526 19.7669 32.0956 15.8451 32.0956C7.09409 32.0956 0 24.9108 0 16.0478C0 7.18484 7.09409 0 15.8451 0C19.7669 0 23.356 1.44304 26.1228 3.83345C28.8897 1.44304 32.4787 0 36.4005 0C45.1515 0 52.2456 7.18485 52.2456 16.0478C52.2456 24.9108 45.1515 32.0956 36.4005 32.0956C32.4787 32.0956 28.8897 30.6526 26.1228 28.2621Z" fill="#ED0006"/>
<path fill-rule="evenodd" clip-rule="evenodd" d="M26.1228 28.262C29.5297 25.3185 31.69 20.9387 31.69 16.0478C31.69 11.1569 29.5297 6.77706 26.1228 3.83359C28.8897 1.44309 32.4788 0 36.4007 0C45.1517 0 52.2458 7.18485 52.2458 16.0478C52.2458 24.9108 45.1517 32.0956 36.4007 32.0956C32.4788 32.0956 28.8897 30.6525 26.1228 28.262Z" fill="#F9A000"/>
<path fill-rule="evenodd" clip-rule="evenodd" d="M26.1222 28.2625C29.5291 25.3191 31.6895 20.9392 31.6895 16.0483C31.6895 11.1573 29.5291 6.77745 26.1222 3.83398C22.7153 6.77745 20.5549 11.1573 20.5549 16.0483C20.5549 20.9392 22.7153 25.3191 26.1222 28.2625Z" fill="#FF5E00"/>
</svg>
