<svg width="283" height="215" viewBox="0 0 283 215" fill="none" xmlns="http://www.w3.org/2000/svg">
<path d="M282.052 195.518H0.868164V195.658H282.052V195.518Z" fill="#EBEBEB"/>
<path d="M42.2979 200.871H30.3701V201.012H42.2979V200.871Z" fill="#EBEBEB"/>
<path d="M144.897 199.348H97.1123V199.488H144.897V199.348Z" fill="#EBEBEB"/>
<path d="M60.3557 206.096H38.9238V206.236H60.3557V206.096Z" fill="#EBEBEB"/>
<path d="M253.878 205.15H229.589V205.291H253.878V205.15Z" fill="#EBEBEB"/>
<path d="M227.749 205.15H221.018V205.291H227.749V205.15Z" fill="#EBEBEB"/>
<path d="M209.444 202.777H196.51V202.918H209.444V202.777Z" fill="#EBEBEB"/>
<path d="M190.009 202.777H162.768V202.918H190.009V202.777Z" fill="#EBEBEB"/>
<path d="M43.0632 195.518H51.7236L51.7236 128.866H43.0632L43.0632 195.518Z" fill="#F4F4F4"/>
<path d="M127.525 128.865H51.7236V195.517H127.525V128.865Z" fill="#F5F5F5"/>
<path d="M128.21 154.021H61.6592V189.669H128.21V154.021Z" fill="#FAFAFA"/>
<path d="M128.21 138.499H61.6592V150.236H128.21V138.499Z" fill="#FAFAFA"/>
<g style="mix-blend-mode:multiply" opacity="0.7">
<path d="M61.0631 189.669H61.6592L61.6592 154.02H61.0631L61.0631 189.669Z" fill="#F1F2F5"/>
</g>
<g style="mix-blend-mode:multiply" opacity="0.7">
<path d="M61.0631 150.235H61.6592V138.499H61.0631V150.235Z" fill="#F1F2F5"/>
</g>
<g style="mix-blend-mode:multiply" opacity="0.7">
<path d="M43.0567 133.185H127.71V131.677H43.0567V133.185Z" fill="#F1F2F5"/>
</g>
<path d="M42.0509 132.313H51.7236V127.955H42.0509V132.313Z" fill="#F4F4F4"/>
<path d="M128.537 127.955H51.7236V132.313H128.537V127.955Z" fill="#F5F5F5"/>
<path d="M74.4534 115.155C73.9699 114.466 73.6875 113.656 73.638 112.816C73.5642 111.966 73.6384 111.11 73.8573 110.285C74.2989 108.655 75.0851 107.138 76.163 105.837C76.6901 105.203 77.2534 104.6 77.8501 104.032C78.165 103.767 78.4687 103.497 78.7893 103.239C79.0981 102.974 79.421 102.726 79.7565 102.496C80.4203 102.036 81.1073 101.61 81.8148 101.22C82.5459 100.86 83.2657 100.506 84.0305 100.219C83.4682 100.849 82.9058 101.4 82.3434 101.956C81.7811 102.513 81.2468 103.081 80.6844 103.644C80.1221 104.206 79.6272 104.768 79.0873 105.331C78.823 105.606 78.5868 105.893 78.3394 106.191C78.0789 106.463 77.8348 106.751 77.6083 107.052C76.6551 108.191 75.8553 109.45 75.2295 110.797C74.9219 111.453 74.6898 112.141 74.5378 112.85C74.3682 113.606 74.3396 114.388 74.4534 115.155Z" fill="#F1F2F5"/>
<path d="M61.3117 112.799C61.5526 112.129 61.6763 111.423 61.6773 110.712C61.6757 110.383 61.6513 110.054 61.6042 109.728C61.5373 109.415 61.449 109.107 61.3398 108.806C60.8331 107.608 60.0644 106.54 59.0904 105.679C58.8542 105.443 58.573 105.24 58.3199 105.015C58.0682 104.78 57.7994 104.564 57.5158 104.369C56.9534 103.975 56.4191 103.508 55.8286 103.143C55.5362 102.946 55.2663 102.749 54.9457 102.541C54.6252 102.333 54.3834 102.119 54.0459 101.934C53.4191 101.537 52.8128 101.109 52.2295 100.651C52.97 100.762 53.704 100.912 54.4283 101.101C54.7928 101.186 55.1501 101.298 55.4968 101.439C55.8455 101.574 56.1942 101.709 56.5429 101.855L57.0659 102.074C57.2346 102.153 57.3977 102.254 57.5664 102.344C57.8982 102.524 58.2243 102.721 58.5561 102.906C58.8875 103.103 59.2034 103.325 59.5009 103.57C59.799 103.817 60.1139 104.037 60.3951 104.312C61.6155 105.399 62.4519 106.851 62.7795 108.451C62.8225 108.653 62.8433 108.858 62.8414 109.064C62.8414 109.272 62.8414 109.481 62.8414 109.683C62.8051 110.087 62.7221 110.485 62.5939 110.87C62.3536 111.619 61.9096 112.287 61.3117 112.799Z" fill="#F1F2F5"/>
<path d="M61.9141 112.799C62.2149 111.308 62.2511 109.775 62.0209 108.272C61.7905 106.85 61.3088 105.481 60.5981 104.228L60.0358 103.3C59.8277 103.002 59.5915 102.738 59.3834 102.423L59.0572 101.973L58.6804 101.563C58.433 101.287 58.1856 101 57.9437 100.713C57.4151 100.179 56.8584 99.6561 56.3185 99.0938C55.7786 98.5314 55.1544 98.059 54.5977 97.4629C55.3624 97.7156 56.1132 98.0085 56.8471 98.3402C57.5599 98.7273 58.2508 99.1535 58.9166 99.6168C59.2316 99.8754 59.5521 100.14 59.8614 100.41L60.3282 100.815L60.7443 101.281C61.0143 101.596 61.3067 101.911 61.5485 102.243L62.2234 103.312C63.0715 104.795 63.5064 106.479 63.4831 108.187C63.4795 109.855 62.9283 111.475 61.9141 112.799Z" fill="#F1F2F5"/>
<path d="M73.7339 113.631C72.6152 112.23 71.671 110.699 70.922 109.07C70.1548 107.442 69.5356 105.748 69.0718 104.009C68.6191 102.258 68.3589 100.462 68.2958 98.655C68.2459 96.8397 68.5221 95.0302 69.1112 93.3125C69.2687 95.1121 69.4655 96.816 69.7579 98.5088C70.0503 100.201 70.4609 101.883 70.8827 103.57C71.3044 105.257 71.7993 106.894 72.2886 108.564C72.7778 110.234 73.2727 111.893 73.7339 113.631Z" fill="#F1F2F5"/>
<path d="M73.1495 113.35C71.8128 112.063 70.6193 110.636 69.5897 109.093C68.5478 107.557 67.6319 105.94 66.851 104.256C66.0689 102.562 65.453 100.795 65.012 98.9813C64.5719 97.1584 64.4351 95.2755 64.6071 93.4082C65.1695 95.1909 65.7319 96.878 66.418 98.5482C67.104 100.218 67.8126 101.838 68.5493 103.475C69.286 105.111 70.079 106.725 70.8607 108.362C71.6424 109.998 72.424 111.635 73.1495 113.35Z" fill="#F1F2F5"/>
<path d="M75.4379 115.492C73.8441 114.532 72.3601 113.401 71.0121 112.118C69.6569 110.853 68.4045 109.482 67.2667 108.018C66.1262 106.54 65.13 104.957 64.2918 103.289C63.4597 101.609 62.907 99.8042 62.6553 97.9463C63.6057 99.5547 64.5505 101.067 65.5683 102.546C66.5862 104.025 67.6603 105.448 68.7457 106.877C69.8311 108.305 70.9952 109.689 72.0862 111.123C73.1772 112.557 74.3469 113.985 75.4379 115.492Z" fill="#F1F2F5"/>
<path d="M71.9958 113.041C70.458 112.273 69.0285 111.305 67.7443 110.162C66.4506 109.03 65.2714 107.774 64.2239 106.411C63.1737 105.036 62.2849 103.545 61.5751 101.968C60.8681 100.385 60.4418 98.6917 60.3154 96.9629C61.1759 98.4644 61.9632 99.8985 62.8742 101.271C63.7852 102.643 64.7131 103.976 65.686 105.275C66.6589 106.574 67.7106 107.862 68.7678 109.138C69.8251 110.415 70.9273 111.697 71.9958 113.041Z" fill="#F1F2F5"/>
<path d="M74.7465 114.609C74.1149 114.16 73.583 113.585 73.1843 112.92C72.7856 112.255 72.5286 111.515 72.4296 110.746C72.2204 109.178 72.4746 107.583 73.1607 106.157L73.3969 105.628L73.6837 105.133L74.2854 104.161C74.5178 103.861 74.754 103.568 74.994 103.283C75.2253 102.99 75.4751 102.712 75.7419 102.451C76.2749 101.936 76.8383 101.453 77.429 101.006C78.0319 100.58 78.6591 100.189 79.3073 99.8359C78.9313 100.46 78.524 101.064 78.087 101.647C77.6709 102.209 77.2997 102.828 76.8835 103.384C76.4674 103.941 76.1581 104.56 75.7588 105.128L75.292 106.016L75.0446 106.455L74.859 106.911C74.2857 108.081 73.9512 109.355 73.8749 110.656C73.8278 112.026 74.1276 113.386 74.7465 114.609Z" fill="#F1F2F5"/>
<path d="M73.706 112.816C72.5744 111.713 71.7522 110.332 71.3216 108.812C70.8492 107.235 70.8258 105.558 71.2541 103.97C71.4672 103.175 71.799 102.416 72.2383 101.72C72.664 101.03 73.1824 100.402 73.7791 99.8531C74.9234 98.776 76.3045 97.9824 77.8113 97.5361C76.7559 98.5576 75.7749 99.6533 74.8758 100.815C74.4613 101.368 74.0962 101.957 73.7848 102.575C73.4734 103.174 73.2301 103.806 73.0593 104.459C72.7047 105.781 72.6036 107.159 72.7613 108.519C72.9237 109.981 73.2404 111.421 73.706 112.816Z" fill="#F1F2F5"/>
<path d="M70.9563 111.483L62.1553 103.036L62.5096 111.32L70.9563 111.483Z" fill="#F1F2F5"/>
<path d="M80.5729 110.583H57.1953L60.2546 127.955H77.5137L80.5729 110.583Z" fill="#F5F5F5"/>
<path d="M65.9682 110.583H57.1953L60.2546 127.955H64.866L65.9682 110.583Z" fill="#EBEBEB"/>
<path d="M104.822 23.6748H57.6338V82.9934H104.822V23.6748Z" fill="#F4F4F4"/>
<path d="M115.242 23.6748H59.4443V82.9934H115.242V23.6748Z" fill="#F5F5F5"/>
<path d="M64.1172 28.3425V78.3145H110.569V28.3425H64.1172Z" fill="white"/>
<path d="M211.935 183.274H205.524L205.783 89.0723H212.194L211.935 183.274Z" fill="white"/>
<path d="M194.974 183.274H188.563L188.828 89.0723H195.239L194.974 183.274Z" fill="white"/>
<path d="M245.551 137.537L244.685 153.326L245.354 153.363L246.22 137.574L245.551 137.537Z" fill="url(#paint0_linear)"/>
<path d="M246.289 124.144L245.843 132.279L246.512 132.316L246.959 124.18L246.289 124.144Z" fill="url(#paint1_linear)"/>
<path d="M232.156 183.423H153.548C152.359 183.437 151.18 183.206 150.084 182.743C148.989 182.28 148.001 181.596 147.182 180.733C146.364 179.871 145.732 178.848 145.328 177.73C144.923 176.612 144.754 175.422 144.831 174.235L153.884 9.18745C154.052 6.71392 155.146 4.39472 156.949 2.69204C158.751 0.989355 161.128 0.0282396 163.607 0.000240704H242.222C243.408 -0.00861332 244.583 0.226885 245.674 0.692062C246.765 1.15724 247.748 1.84213 248.563 2.70404C249.378 3.56596 250.006 4.58643 250.409 5.70188C250.812 6.81732 250.981 8.00382 250.906 9.18745L241.846 174.235C241.68 176.704 240.59 179.019 238.795 180.721C237 182.423 234.63 183.388 232.156 183.423Z" fill="url(#paint2_linear)"/>
<path opacity="0.8" d="M227.401 183.423H153.548C152.359 183.437 151.18 183.206 150.084 182.743C148.989 182.28 148.001 181.596 147.182 180.733C146.364 179.871 145.732 178.848 145.328 177.73C144.923 176.612 144.754 175.422 144.831 174.235L153.884 9.18751C154.052 6.71398 155.146 4.39477 156.949 2.69209C158.751 0.989412 161.128 0.0282962 163.607 0.000297312H237.467C238.653 -0.00954917 239.829 0.225277 240.92 0.690113C242.012 1.15495 242.996 1.83981 243.811 2.70194C244.626 3.56407 245.254 4.58495 245.657 5.70084C246.06 6.81672 246.228 8.00365 246.151 9.18751L237.098 174.235C236.929 176.704 235.838 179.018 234.041 180.72C232.245 182.422 229.875 183.386 227.401 183.423Z" fill="white"/>
<path d="M190.799 29.9221H169.587C169.087 29.926 168.59 29.8264 168.13 29.6298C167.669 29.4331 167.254 29.1435 166.91 28.7791C166.566 28.4146 166.302 27.9832 166.132 27.5118C165.963 27.0404 165.893 26.5391 165.926 26.0393C165.997 24.9976 166.457 24.0206 167.214 23.3025C167.972 22.5844 168.973 22.1777 170.017 22.1633H191.228C191.728 22.1585 192.224 22.2571 192.685 22.453C193.146 22.649 193.561 22.9379 193.905 23.3018C194.248 23.6657 194.513 24.0967 194.683 24.5678C194.852 25.0388 194.922 25.5398 194.889 26.0393C194.819 27.0816 194.359 28.0594 193.601 28.7786C192.843 29.4978 191.843 29.906 190.799 29.9221Z" fill="white"/>
<path d="M194.89 26.04C194.77 27.9202 193.942 29.6853 192.574 30.9803C191.205 32.2754 189.397 33.0044 187.513 33.0209C186.611 33.0313 185.716 32.8549 184.886 32.5027C184.055 32.1504 183.306 31.6301 182.686 30.9744C182.066 30.3187 181.589 29.5418 181.284 28.6925C180.979 27.8433 180.853 26.9402 180.914 26.04C181.035 24.1597 181.862 22.3947 183.231 21.0996C184.599 19.8046 186.407 19.0755 188.291 19.059C189.193 19.0486 190.088 19.2251 190.919 19.5773C191.749 19.9295 192.498 20.4498 193.118 21.1056C193.738 21.7613 194.215 22.5382 194.52 23.3874C194.825 24.2366 194.951 25.1397 194.89 26.04Z" fill="url(#paint3_linear)"/>
<path d="M189.438 54.7414H168.227C167.726 54.7453 167.23 54.6458 166.769 54.4491C166.309 54.2524 165.893 53.9628 165.55 53.5984C165.206 53.234 164.941 52.8026 164.772 52.3312C164.603 51.8597 164.532 51.3585 164.566 50.8587C164.636 49.817 165.096 48.84 165.854 48.1219C166.612 47.4037 167.612 46.997 168.656 46.9826H189.867C190.368 46.9778 190.864 47.0764 191.325 47.2724C191.785 47.4683 192.201 47.7573 192.544 48.1212C192.888 48.4851 193.153 48.9161 193.322 49.3871C193.492 49.8582 193.562 50.3592 193.529 50.8587C193.458 51.901 192.999 52.8787 192.241 53.5979C191.483 54.3172 190.483 54.7253 189.438 54.7414Z" fill="white"/>
<path d="M181.921 55.743C184.761 52.9797 184.943 48.5596 182.327 45.8704C179.711 43.1812 175.288 43.2412 172.447 46.0045C169.606 48.7677 169.424 53.1879 172.041 55.8771C174.657 58.5663 179.08 58.5063 181.921 55.743Z" fill="url(#paint4_linear)"/>
<path opacity="0.3" d="M181.921 55.743C184.761 52.9797 184.943 48.5596 182.327 45.8704C179.711 43.1812 175.288 43.2412 172.447 46.0045C169.606 48.7677 169.424 53.1879 172.041 55.8771C174.657 58.5663 179.08 58.5063 181.921 55.743Z" fill="#FAFAFA"/>
<path d="M165.505 104.379H186.689C187.734 104.363 188.734 103.955 189.492 103.236C190.249 102.516 190.709 101.539 190.78 100.496C190.813 99.9964 190.743 99.4948 190.573 99.0233C190.403 98.5518 190.138 98.1205 189.793 97.7565C189.449 97.3924 189.033 97.1036 188.571 96.9081C188.11 96.7126 187.613 96.6146 187.112 96.6204H165.934C164.889 96.6347 163.888 97.0412 163.129 97.7591C162.37 98.4771 161.909 99.4542 161.837 100.496C161.804 100.997 161.876 101.498 162.046 101.969C162.216 102.441 162.481 102.872 162.825 103.236C163.17 103.601 163.585 103.89 164.046 104.087C164.507 104.283 165.004 104.383 165.505 104.379Z" fill="white"/>
<path d="M173.56 105.371C176.401 102.608 176.583 98.1875 173.967 95.4983C171.351 92.8091 166.927 92.8691 164.087 95.6324C161.246 98.3957 161.064 102.816 163.68 105.505C166.296 108.194 170.72 108.134 173.56 105.371Z" fill="url(#paint5_linear)"/>
<path opacity="0.7" d="M173.56 105.371C176.401 102.608 176.583 98.1875 173.967 95.4983C171.351 92.8091 166.927 92.8691 164.087 95.6324C161.246 98.3957 161.064 102.816 163.68 105.505C166.296 108.194 170.72 108.134 173.56 105.371Z" fill="#FAFAFA"/>
<path d="M185.348 129.198H164.144C163.642 129.201 163.146 129.102 162.685 128.905C162.224 128.709 161.808 128.419 161.464 128.055C161.12 127.691 160.854 127.259 160.684 126.788C160.514 126.316 160.443 125.815 160.475 125.315C160.548 124.273 161.009 123.295 161.768 122.577C162.527 121.86 163.528 121.453 164.573 121.439H185.777C186.278 121.433 186.775 121.531 187.237 121.726C187.698 121.922 188.114 122.211 188.459 122.575C188.803 122.939 189.068 123.37 189.238 123.842C189.408 124.313 189.479 124.815 189.445 125.315C189.375 126.358 188.914 127.337 188.155 128.056C187.396 128.776 186.394 129.183 185.348 129.198Z" fill="white"/>
<path d="M189.445 125.315C189.325 127.196 188.497 128.961 187.129 130.256C185.76 131.551 183.952 132.28 182.068 132.296C181.166 132.307 180.271 132.13 179.44 131.778C178.609 131.426 177.859 130.906 177.239 130.25C176.619 129.595 176.141 128.818 175.835 127.969C175.529 127.119 175.403 126.216 175.463 125.315C175.586 123.436 176.415 121.673 177.782 120.379C179.15 119.084 180.956 118.354 182.839 118.334C183.742 118.323 184.638 118.499 185.469 118.851C186.301 119.203 187.05 119.723 187.671 120.379C188.291 121.034 188.769 121.812 189.075 122.661C189.38 123.511 189.506 124.415 189.445 125.315Z" fill="url(#paint6_linear)"/>
<path d="M166.865 79.5598H188.076C189.12 79.5437 190.121 79.1356 190.879 78.4164C191.636 77.6971 192.096 76.7194 192.167 75.6771C192.2 75.177 192.129 74.6755 191.96 74.204C191.79 73.7324 191.524 73.3011 191.18 72.9371C190.835 72.5731 190.419 72.2843 189.958 72.0888C189.496 71.8932 188.999 71.7953 188.498 71.801H167.294C166.25 71.8155 165.25 72.2222 164.492 72.9403C163.734 73.6584 163.274 74.6354 163.203 75.6771C163.17 76.1769 163.24 76.6782 163.41 77.1496C163.579 77.621 163.844 78.0524 164.187 78.4168C164.531 78.7812 164.946 79.0709 165.407 79.2675C165.868 79.4642 166.364 79.5637 166.865 79.5598Z" fill="white"/>
<path d="M163.218 75.6777C163.157 76.5779 163.283 77.481 163.588 78.3302C163.893 79.1795 164.37 79.9564 164.99 80.6121C165.61 81.2678 166.359 81.7881 167.189 82.1403C168.02 82.4925 168.915 82.669 169.817 82.6586C171.701 82.6421 173.509 81.9131 174.877 80.618C176.246 79.323 177.073 77.5579 177.193 75.6777C177.255 74.7774 177.129 73.8743 176.824 73.0251C176.519 72.1759 176.042 71.399 175.422 70.7432C174.802 70.0875 174.053 69.5672 173.222 69.215C172.392 68.8628 171.497 68.6863 170.595 68.6967C168.711 68.7132 166.903 69.4423 165.534 70.7373C164.166 72.0324 163.338 73.7974 163.218 75.6777Z" fill="url(#paint7_linear)"/>
<path opacity="0.7" d="M163.218 75.6777C163.157 76.5779 163.283 77.481 163.588 78.3302C163.893 79.1795 164.37 79.9564 164.99 80.6121C165.61 81.2678 166.359 81.7881 167.189 82.1403C168.02 82.4925 168.915 82.669 169.817 82.6586C171.701 82.6421 173.509 81.9131 174.877 80.618C176.246 79.323 177.073 77.5579 177.193 75.6777C177.255 74.7774 177.129 73.8743 176.824 73.0251C176.519 72.1759 176.042 71.399 175.422 70.7432C174.802 70.0875 174.053 69.5672 173.222 69.215C172.392 68.8628 171.497 68.6863 170.595 68.6967C168.711 68.7132 166.903 69.4423 165.534 70.7373C164.166 72.0324 163.338 73.7974 163.218 75.6777Z" fill="#FAFAFA"/>
<path d="M237.258 24.8793H205.82C205.62 24.8797 205.422 24.839 205.238 24.7598C205.055 24.6805 204.889 24.5644 204.752 24.4185C204.615 24.2726 204.509 24.1002 204.442 23.9118C204.374 23.7235 204.346 23.5233 204.358 23.3235C204.387 22.9071 204.571 22.5166 204.874 22.2297C205.177 21.9427 205.577 21.7802 205.995 21.7744H237.432C237.632 21.7731 237.83 21.8129 238.014 21.8915C238.198 21.97 238.363 22.0855 238.501 22.2308C238.638 22.3762 238.743 22.5482 238.811 22.7362C238.879 22.9242 238.907 23.1241 238.894 23.3235C238.867 23.7412 238.684 24.1333 238.381 24.4216C238.077 24.71 237.677 24.8734 237.258 24.8793Z" fill="white"/>
<path d="M226.784 30.311H205.526C205.326 30.3123 205.127 30.2723 204.942 30.1934C204.758 30.1146 204.591 29.9985 204.454 29.8526C204.316 29.7066 204.21 29.5339 204.141 29.3451C204.073 29.1563 204.045 28.9555 204.058 28.7552C204.086 28.3387 204.27 27.9483 204.574 27.6613C204.877 27.3743 205.277 27.2118 205.694 27.2061H226.959C227.159 27.2048 227.357 27.2446 227.541 27.3231C227.725 27.4015 227.891 27.5169 228.029 27.6622C228.167 27.8074 228.273 27.9793 228.341 28.1673C228.41 28.3553 228.439 28.5554 228.427 28.7552C228.399 29.1734 228.214 29.5655 227.909 29.8538C227.605 30.142 227.203 30.3052 226.784 30.311Z" fill="white"/>
<path d="M227.843 124.155H200.349C200.149 124.155 199.95 124.114 199.767 124.035C199.583 123.956 199.417 123.84 199.28 123.694C199.143 123.548 199.038 123.376 198.97 123.187C198.902 122.999 198.874 122.799 198.887 122.599C198.914 122.182 199.098 121.791 199.401 121.503C199.704 121.216 200.105 121.054 200.523 121.05H227.984C228.184 121.049 228.382 121.088 228.567 121.167C228.751 121.245 228.917 121.361 229.054 121.506C229.192 121.651 229.298 121.823 229.367 122.011C229.435 122.199 229.465 122.399 229.453 122.599C229.425 123.012 229.245 123.399 228.947 123.686C228.65 123.974 228.257 124.141 227.843 124.155Z" fill="white"/>
<path d="M213.654 129.581H200.101C199.901 129.582 199.703 129.542 199.519 129.464C199.335 129.385 199.169 129.27 199.031 129.125C198.893 128.979 198.787 128.807 198.718 128.619C198.65 128.431 198.621 128.231 198.632 128.032C198.661 127.615 198.845 127.225 199.148 126.938C199.451 126.651 199.851 126.488 200.269 126.482H213.842C214.042 126.481 214.24 126.521 214.424 126.599C214.608 126.678 214.774 126.793 214.912 126.939C215.05 127.084 215.156 127.256 215.225 127.444C215.293 127.632 215.322 127.832 215.31 128.032C215.281 128.451 215.094 128.845 214.787 129.132C214.48 129.42 214.075 129.58 213.654 129.581Z" fill="white"/>
<path d="M235.77 52.0254H204.332C203.915 52.0312 203.515 52.1937 203.212 52.4806C202.909 52.7676 202.725 53.1581 202.696 53.5745C202.684 53.7743 202.713 53.9743 202.782 54.1623C202.85 54.3504 202.957 54.5223 203.094 54.6675C203.232 54.8127 203.398 54.9281 203.582 55.0066C203.766 55.085 203.964 55.1249 204.165 55.1236H235.602C236.02 55.1178 236.42 54.9553 236.723 54.6684C237.026 54.3814 237.21 53.9909 237.239 53.5745C237.25 53.3748 237.221 53.1747 237.153 52.9867C237.084 52.7987 236.978 52.6267 236.84 52.4815C236.702 52.3363 236.536 52.2209 236.352 52.1424C236.168 52.064 235.97 52.0241 235.77 52.0254Z" fill="white"/>
<path d="M225.892 46.5938H204.634C204.217 46.5996 203.817 46.7621 203.514 47.0491C203.211 47.336 203.027 47.7265 202.998 48.1429C202.985 48.3427 203.014 48.5429 203.081 48.7312C203.149 48.9196 203.255 49.092 203.392 49.2379C203.529 49.3838 203.694 49.4999 203.878 49.5792C204.062 49.6584 204.26 49.6991 204.46 49.6987H225.725C226.143 49.6913 226.543 49.5274 226.846 49.2393C227.149 48.9512 227.333 48.56 227.361 48.1429C227.374 47.9429 227.345 47.7424 227.277 47.554C227.209 47.3655 227.103 47.1932 226.965 47.0478C226.827 46.9023 226.661 46.7869 226.476 46.7088C226.291 46.6307 226.093 46.5916 225.892 46.5938Z" fill="white"/>
<path d="M219.226 74.5173H203.132C202.932 74.5177 202.734 74.477 202.55 74.3977C202.366 74.3185 202.201 74.2023 202.064 74.0565C201.926 73.9106 201.821 73.7382 201.753 73.5498C201.685 73.3615 201.657 73.1612 201.67 72.9615C201.697 72.5445 201.881 72.1531 202.184 71.8659C202.488 71.5786 202.888 71.4166 203.306 71.4124H219.401C219.602 71.4083 219.803 71.4461 219.989 71.5233C220.176 71.6005 220.344 71.7155 220.484 71.861C220.624 72.0065 220.732 72.1794 220.802 72.3688C220.872 72.5582 220.901 72.76 220.889 72.9615C220.861 73.3831 220.673 73.7782 220.364 74.0669C220.056 74.3556 219.649 74.5166 219.226 74.5173Z" fill="white"/>
<path d="M234.536 74.517H225.04C224.839 74.5183 224.64 74.4783 224.456 74.3995C224.271 74.3206 224.105 74.2046 223.967 74.0587C223.829 73.9127 223.723 73.7399 223.655 73.5511C223.587 73.3623 223.558 73.1615 223.571 72.9612C223.6 72.5448 223.784 72.1543 224.087 71.8674C224.39 71.5804 224.79 71.4179 225.208 71.4121H234.71C234.91 71.4108 235.108 71.4506 235.292 71.5292C235.475 71.6077 235.641 71.7232 235.778 71.8685C235.915 72.0139 236.021 72.1859 236.089 72.3739C236.157 72.5619 236.185 72.7618 236.172 72.9612C236.143 73.3783 235.96 73.7695 235.657 74.0576C235.354 74.3457 234.954 74.5096 234.536 74.517Z" fill="white"/>
<path d="M224.061 79.942H202.783C202.583 79.9432 202.384 79.9034 202.2 79.825C202.016 79.7465 201.85 79.6311 201.713 79.4859C201.575 79.3407 201.468 79.1687 201.4 78.9807C201.331 78.7927 201.302 78.5926 201.314 78.3929C201.343 77.9764 201.527 77.586 201.83 77.299C202.133 77.012 202.533 76.8495 202.95 76.8438H224.242C224.442 76.8425 224.64 76.8823 224.824 76.9608C225.008 77.0392 225.174 77.1546 225.312 77.2999C225.45 77.4451 225.556 77.617 225.625 77.805C225.693 77.993 225.722 78.1931 225.711 78.3929C225.682 78.8116 225.496 79.2039 225.19 79.4913C224.884 79.7786 224.481 79.9396 224.061 79.942Z" fill="white"/>
<path d="M197.417 151.355H161.205C160.923 151.361 160.643 151.309 160.383 151.2C160.123 151.092 159.889 150.93 159.696 150.725C159.502 150.52 159.354 150.277 159.26 150.011C159.167 149.745 159.13 149.463 159.153 149.182C159.193 148.598 159.451 148.051 159.876 147.649C160.301 147.246 160.861 147.018 161.446 147.009H197.659C197.94 147.003 198.22 147.055 198.48 147.164C198.74 147.272 198.975 147.434 199.168 147.639C199.362 147.844 199.51 148.087 199.603 148.353C199.697 148.619 199.733 148.901 199.711 149.182C199.672 149.766 199.414 150.315 198.989 150.717C198.564 151.12 198.003 151.348 197.417 151.355Z" fill="white"/>
<path d="M229.701 151.355H207.477C207.196 151.361 206.916 151.309 206.656 151.2C206.396 151.092 206.162 150.93 205.968 150.725C205.775 150.52 205.626 150.277 205.533 150.011C205.439 149.745 205.403 149.463 205.425 149.182C205.466 148.598 205.724 148.051 206.149 147.649C206.573 147.246 207.134 147.018 207.719 147.009H229.943C230.224 147.003 230.504 147.055 230.764 147.164C231.024 147.272 231.258 147.434 231.452 147.639C231.645 147.844 231.794 148.087 231.887 148.353C231.981 148.619 232.017 148.901 231.995 149.182C231.954 149.766 231.696 150.313 231.271 150.716C230.847 151.118 230.286 151.346 229.701 151.355Z" fill="white"/>
<path d="M188.365 158.932H160.804C160.522 158.939 160.242 158.886 159.982 158.777C159.722 158.669 159.488 158.507 159.294 158.302C159.101 158.097 158.953 157.854 158.859 157.588C158.766 157.323 158.729 157.04 158.752 156.759C158.79 156.175 159.048 155.627 159.473 155.224C159.898 154.821 160.46 154.594 161.045 154.586H188.6C188.882 154.58 189.162 154.633 189.422 154.741C189.682 154.85 189.916 155.012 190.109 155.216C190.303 155.421 190.451 155.664 190.545 155.93C190.638 156.196 190.675 156.478 190.652 156.759C190.613 157.342 190.357 157.89 189.933 158.292C189.509 158.695 188.95 158.923 188.365 158.932Z" fill="white"/>
<path d="M218.294 166.55H160.388C160.106 166.557 159.826 166.504 159.566 166.395C159.306 166.287 159.072 166.125 158.878 165.92C158.685 165.715 158.537 165.472 158.443 165.206C158.35 164.941 158.313 164.658 158.336 164.377C158.374 163.794 158.631 163.247 159.055 162.844C159.478 162.442 160.038 162.213 160.622 162.205H218.529C218.81 162.198 219.09 162.251 219.35 162.359C219.61 162.468 219.844 162.63 220.038 162.835C220.231 163.039 220.38 163.283 220.473 163.548C220.567 163.814 220.603 164.097 220.581 164.377C220.542 164.961 220.285 165.508 219.862 165.91C219.438 166.313 218.878 166.541 218.294 166.55Z" fill="white"/>
<path d="M210.917 101.663H201.609C201.191 101.669 200.791 101.831 200.488 102.118C200.185 102.405 200.001 102.796 199.972 103.212C199.96 103.412 199.99 103.612 200.058 103.8C200.127 103.988 200.233 104.16 200.371 104.305C200.508 104.45 200.674 104.566 200.859 104.644C201.043 104.723 201.241 104.763 201.441 104.761H210.749C211.166 104.756 211.566 104.593 211.869 104.306C212.172 104.019 212.357 103.629 212.385 103.212C212.397 103.012 212.368 102.812 212.299 102.624C212.231 102.436 212.124 102.264 211.987 102.119C211.849 101.974 211.683 101.859 211.499 101.78C211.315 101.702 211.117 101.662 210.917 101.663Z" fill="white"/>
<path d="M227.521 101.663H216.731C216.313 101.669 215.913 101.831 215.61 102.118C215.307 102.405 215.123 102.796 215.094 103.212C215.082 103.412 215.112 103.612 215.18 103.8C215.249 103.988 215.355 104.16 215.493 104.305C215.63 104.45 215.797 104.566 215.981 104.644C216.165 104.723 216.363 104.763 216.563 104.761H227.353C227.77 104.756 228.17 104.593 228.473 104.306C228.777 104.019 228.961 103.629 228.989 103.212C229.002 103.012 228.974 102.812 228.905 102.623C228.837 102.435 228.731 102.263 228.593 102.117C228.455 101.972 228.289 101.856 228.104 101.778C227.92 101.7 227.721 101.661 227.521 101.663Z" fill="white"/>
<path d="M223.17 96.2315H201.912C201.494 96.2357 201.093 96.3976 200.79 96.6849C200.486 96.9722 200.303 97.3636 200.275 97.7806C200.263 97.9803 200.291 98.1805 200.359 98.3689C200.426 98.5572 200.532 98.7297 200.669 98.8755C200.806 99.0214 200.972 99.1375 201.155 99.2168C201.339 99.2961 201.537 99.3368 201.737 99.3364H223.002C223.42 99.3289 223.82 99.165 224.123 98.8769C224.426 98.5889 224.61 98.1976 224.638 97.7806C224.65 97.5808 224.621 97.3807 224.553 97.1927C224.484 97.0047 224.378 96.8328 224.24 96.6875C224.102 96.5423 223.936 96.4269 223.752 96.3485C223.568 96.27 223.37 96.2302 223.17 96.2315Z" fill="white"/>
<path d="M100.969 77.831C99.1304 79.3551 97.2296 81.014 95.4807 82.6786C94.6034 83.5166 93.7486 84.3657 92.9556 85.243C92.1869 86.0675 91.4819 86.9492 90.8468 87.8805L90.7399 88.038L90.6893 88.128C90.643 88.1991 90.6035 88.2744 90.5712 88.3529C90.4925 88.5273 90.4194 88.7466 90.3406 88.9772C90.1908 89.4883 90.0743 90.0087 89.992 90.5349C89.8165 91.7091 89.7039 92.8917 89.6546 94.0778C89.5365 96.5073 89.5365 99.0435 89.5814 101.524L86.9496 101.917C86.2904 99.3731 85.839 96.7795 85.5999 94.1622C85.4743 92.8032 85.4424 91.4372 85.5043 90.0738C85.5491 89.3373 85.643 88.6046 85.7855 87.8805C85.8642 87.4724 85.9713 87.0703 86.106 86.6771C86.1904 86.4578 86.2522 86.2553 86.3647 86.0247L86.5222 85.6873C86.5784 85.5861 86.6178 85.5242 86.6628 85.4342C87.3513 84.19 88.1552 83.0132 89.0641 81.9194C89.9064 80.8697 90.8017 79.8636 91.7466 78.9052C93.5974 77.0102 95.5739 75.2422 97.6627 73.6133L100.969 77.831Z" fill="#F9C7C2"/>
<path d="M99.986 71.0884C97.1066 72.7755 92.7539 77.162 92.7539 77.162L98.0908 83.5674C98.0908 83.5674 105.666 79.0234 106.588 76.5209C108.129 72.3088 102.708 69.4744 99.986 71.0884Z" fill="#58A5FF"/>
<path d="M89.4636 100.574L90.1159 104.381L86.5786 103.869C86.5786 103.869 85.8532 101.282 87.7034 100.394L89.4636 100.574Z" fill="#F9C7C2"/>
<path d="M88.8119 106.697L85.6289 105.707L86.5793 103.868L90.1166 104.38L88.8119 106.697Z" fill="#F9C7C2"/>
<path d="M121.396 57.6365C121.396 58.0247 121.609 58.3398 121.868 58.3455C122.127 58.3511 122.324 58.036 122.318 57.6534C122.313 57.2708 122.105 56.95 121.846 56.9444C121.587 56.9388 121.39 57.2539 121.396 57.6365Z" fill="#0C0E1B"/>
<path d="M121.733 56.9505L122.673 56.6973C122.673 56.6973 122.2 57.4287 121.733 56.9505Z" fill="#0C0E1B"/>
<path d="M121.728 58.0186C122.089 58.9095 122.57 59.7475 123.156 60.5098C122.955 60.647 122.727 60.7391 122.487 60.7799C122.248 60.8207 122.002 60.8091 121.767 60.746L121.728 58.0186Z" fill="#EC9592"/>
<path d="M121.884 55.0663C121.848 55.0772 121.809 55.0772 121.772 55.0663C121.495 54.9651 121.198 54.9303 120.905 54.9644C120.612 54.9986 120.331 55.1009 120.085 55.2631C120.061 55.2817 120.034 55.2953 120.004 55.3032C119.975 55.311 119.945 55.3129 119.915 55.3087C119.885 55.3045 119.856 55.2943 119.83 55.2787C119.804 55.2632 119.782 55.2426 119.764 55.2181C119.728 55.1695 119.713 55.1086 119.721 55.0486C119.729 54.9886 119.761 54.9344 119.809 54.8976C120.114 54.6949 120.461 54.5655 120.824 54.5196C121.187 54.4738 121.556 54.5127 121.901 54.6333C121.958 54.6525 122.005 54.6933 122.033 54.7469C122.06 54.8005 122.065 54.8626 122.047 54.9201C122.034 54.9555 122.012 54.9873 121.983 55.0127C121.955 55.0381 121.921 55.0565 121.884 55.0663Z" fill="#0C0E1B"/>
<path d="M109.934 61.7637C110.192 64.6711 109.22 69.4344 107.026 71.054C107.026 71.054 108.68 74.1133 113.977 74.8275C119.809 75.6092 117.07 72.3306 117.07 72.3306C113.972 71.1496 114.298 68.8158 115.085 66.7069L109.934 61.7637Z" fill="#F9C7C2"/>
<path d="M120.286 74.5916C123.059 75.3452 125.972 76.0707 128.829 76.7174C130.268 77.0267 131.708 77.2797 133.148 77.589C134.587 77.8983 136.033 78.0952 137.467 78.2808L138.029 78.3539L138.4 78.3932C138.659 78.3932 138.963 78.3932 139.244 78.3932C139.897 78.3477 140.547 78.2594 141.19 78.1289C142.582 77.8415 143.958 77.4791 145.312 77.0436C148.084 76.1775 150.896 75.1315 153.646 74.0518L154.895 76.3968C152.302 78.0932 149.582 79.5843 146.757 80.8564C145.296 81.5167 143.793 82.0803 142.258 82.5435C141.438 82.7871 140.601 82.975 139.756 83.1059C139.289 83.1694 138.82 83.2089 138.35 83.224H137.585L137.022 83.179C133.925 82.9645 130.845 82.555 127.8 81.953C124.763 81.3874 121.76 80.659 118.802 79.771L120.286 74.5916Z" fill="#F9C7C2"/>
<path d="M152.916 75.0024L153.731 72.2412L156.729 73.3659C156.729 73.3659 156.043 77.5162 153.473 76.369L152.916 75.0024Z" fill="#F9C7C2"/>
<path d="M155.469 70.4082L158.528 70.7512L156.729 73.3663L153.731 72.2415L155.469 70.4082Z" fill="#F9C7C2"/>
<path d="M101.33 209.278L106.15 209.633L107.584 198.565L102.764 198.211L101.33 209.278Z" fill="#F9C7C2"/>
<path d="M65.7871 187.824L69.0601 191.457L78.2042 185.136L74.9312 181.509L65.7871 187.824Z" fill="#F9C7C2"/>
<path d="M71.4852 193.516C71.4274 193.524 71.3687 193.524 71.3109 193.516C70.7485 193.325 70.3267 192.239 70.1412 191.61C70.1349 191.588 70.1353 191.565 70.1421 191.544C70.1488 191.523 70.1618 191.504 70.1793 191.49C70.1968 191.476 70.218 191.468 70.2403 191.466C70.2625 191.464 70.2848 191.469 70.3042 191.48C70.4786 191.57 72.0307 192.414 72.0813 193.032C72.0868 193.1 72.0747 193.167 72.0461 193.228C72.0175 193.289 71.9734 193.342 71.9182 193.381C71.7934 193.474 71.6407 193.521 71.4852 193.516ZM70.4448 191.79C70.726 192.622 71.0691 193.167 71.384 193.269C71.4523 193.288 71.5244 193.289 71.5934 193.273C71.6624 193.256 71.7259 193.222 71.7776 193.173C71.8027 193.157 71.8231 193.134 71.8369 193.107C71.8507 193.081 71.8574 193.051 71.8564 193.021C71.8283 192.695 71.0578 192.144 70.4448 191.79Z" fill="#58A5FF"/>
<path d="M71.6701 192.015C71.156 192.004 70.6507 191.88 70.191 191.649C70.1741 191.638 70.1601 191.623 70.1503 191.605C70.1405 191.588 70.1352 191.568 70.1348 191.548C70.1343 191.528 70.14 191.508 70.151 191.491C70.162 191.473 70.1779 191.46 70.1967 191.452C70.2416 191.424 71.4339 190.766 72.0918 190.991C72.1777 191.018 72.2565 191.064 72.3226 191.126C72.3887 191.187 72.4405 191.262 72.4742 191.345C72.5193 191.425 72.535 191.519 72.5186 191.609C72.5022 191.699 72.4546 191.781 72.3843 191.84C72.1724 191.977 71.9209 192.038 71.6701 192.015ZM70.5003 191.548C71.0627 191.778 71.985 191.885 72.2381 191.672C72.2774 191.632 72.3224 191.576 72.2381 191.435C72.2171 191.382 72.1846 191.333 72.1428 191.293C72.101 191.253 72.051 191.223 71.9962 191.205C71.4743 191.164 70.9523 191.283 70.5003 191.548Z" fill="#58A5FF"/>
<path d="M70.5289 190.923L67.8295 186.131C67.7851 186.049 67.7122 185.985 67.6243 185.952C67.5364 185.919 67.4395 185.918 67.3515 185.951L63.3643 187.481C63.2623 187.526 63.1712 187.593 63.0971 187.676C63.0229 187.759 62.9675 187.858 62.9345 187.964C62.9014 188.071 62.8916 188.183 62.9056 188.294C62.9196 188.404 62.9571 188.511 63.0156 188.606C63.9885 190.259 64.534 191.007 65.7206 193.105C66.4517 194.398 67.5764 197.227 68.4425 199.088C69.3085 200.95 71.1419 200.213 70.945 199.369C70.2837 196.895 70.1914 194.304 70.6751 191.789C70.7293 191.492 70.6776 191.185 70.5289 190.923Z" fill="#0C0E1B"/>
<path d="M108.246 209.79C107.736 209.78 107.228 209.724 106.728 209.621C106.705 209.616 106.685 209.604 106.668 209.587C106.652 209.57 106.642 209.549 106.638 209.526C106.634 209.502 106.638 209.478 106.65 209.457C106.661 209.435 106.678 209.418 106.7 209.408C106.919 209.295 108.876 208.283 109.455 208.637C109.51 208.668 109.556 208.711 109.588 208.765C109.621 208.818 109.639 208.879 109.641 208.941C109.652 209.046 109.637 209.152 109.598 209.25C109.559 209.348 109.496 209.435 109.416 209.503C109.069 209.727 108.657 209.828 108.246 209.79ZM107.122 209.458C108.185 209.633 108.977 209.588 109.281 209.323C109.332 209.278 109.371 209.221 109.396 209.158C109.42 209.094 109.429 209.026 109.422 208.958C109.422 208.933 109.416 208.909 109.405 208.887C109.393 208.865 109.375 208.847 109.354 208.834C109.022 208.66 107.915 209.076 107.11 209.458H107.122Z" fill="#58A5FF"/>
<path d="M106.75 209.621C106.729 209.629 106.705 209.629 106.683 209.621C106.666 209.611 106.653 209.595 106.645 209.577C106.637 209.56 106.635 209.54 106.638 209.52C106.638 209.43 106.869 207.462 107.948 207.462H108.044C108.353 207.49 108.443 207.647 108.466 207.777C108.556 208.339 107.386 209.368 106.779 209.627C106.769 209.627 106.759 209.625 106.75 209.621ZM107.954 207.664C107.257 207.664 106.981 208.789 106.897 209.301C107.498 208.941 108.291 208.126 108.241 207.794C108.241 207.794 108.241 207.692 108.021 207.67L107.954 207.664Z" fill="#58A5FF"/>
<path d="M106.452 208.947H101.031C100.937 208.947 100.846 208.981 100.774 209.041C100.702 209.102 100.653 209.186 100.638 209.279L99.9121 213.564C99.8976 213.672 99.9063 213.781 99.9376 213.885C99.9689 213.988 100.022 214.084 100.093 214.166C100.165 214.247 100.253 214.313 100.351 214.357C100.45 214.402 100.557 214.425 100.666 214.425C102.555 214.391 103.477 214.279 105.851 214.279C107.313 214.279 110.35 214.43 112.369 214.43C114.387 214.43 114.55 212.434 113.713 212.248C109.956 211.439 108.494 210.314 107.251 209.245C107.028 209.055 106.745 208.949 106.452 208.947Z" fill="#0C0E1B"/>
<path opacity="0.2" d="M107.583 198.571L106.785 204.723L102.021 203.925L102.758 198.211L107.583 198.571Z" fill="#0C0E1B"/>
<path opacity="0.2" d="M74.9265 181.509L78.1995 185.142L74.4204 187.751L71.0293 184.203L74.9265 181.509Z" fill="#0C0E1B"/>
<path d="M98.9007 100.1L118.404 102.721C125.967 75.3394 123.735 74.6027 123.735 74.6027C122.273 73.9183 120.771 73.3248 119.236 72.8256L118.972 72.7413C117.712 72.3588 117.448 72.3082 115.766 71.9258C112.881 71.4141 110.204 71.0204 106.898 70.7392C106.689 70.7392 106.476 70.6999 106.268 70.6886C105.672 70.6492 105.081 70.6211 104.508 70.5986C104.125 70.5986 103.737 70.5986 103.383 70.5986H101.482C101.106 70.6071 100.736 70.694 100.395 70.8536C100.054 71.0133 99.7506 71.2423 99.5034 71.526C99.2562 71.8097 99.071 72.1418 98.9594 72.5011C98.8479 72.8605 98.8126 73.2392 98.8557 73.6129C100.526 87.9927 99.9973 92.7334 98.9007 100.1Z" fill="#58A5FF"/>
<path opacity="0.2" d="M118.966 80.7946C119.101 82.0655 122.036 84.3881 123.054 83.7639C123.347 82.2399 123.56 80.952 123.712 79.9173C122.239 79.8048 119.354 78.1796 118.966 80.7946Z" fill="#0C0E1B"/>
<path d="M115.799 74.3838C115.659 69.8849 126.563 74.8393 129.065 75.9584L126.276 83.4998C126.276 83.4998 122.626 83.3761 120.304 82.032C118.983 81.2252 117.88 80.1053 117.095 78.7714C116.309 77.4374 115.864 75.9305 115.799 74.3838Z" fill="#58A5FF"/>
<path d="M108.281 56.3879C108.641 61.1455 108.691 63.1644 111.154 65.6388C114.849 69.3561 120.67 68.0401 121.749 63.3106C122.722 59.0535 121.969 51.9901 117.251 50.0331C116.238 49.5795 115.124 49.3978 114.019 49.506C112.915 49.6142 111.857 50.0086 110.952 50.6502C110.046 51.2918 109.323 52.1585 108.855 53.1647C108.387 54.1709 108.189 55.2818 108.281 56.3879Z" fill="#F9C7C2"/>
<path d="M108.697 51.3659C103.917 50.1681 103.765 54.1778 103.866 56.2923C103.967 58.4068 100.453 59.419 100.453 62.0678C100.453 65.5207 103.056 67.579 96.7241 68.625C91.3647 69.5079 89.7114 76.2057 97.6407 80.1254C106.419 84.4557 119.663 78.3596 118.055 72.5616C115.592 63.6143 120.017 63.6424 119.528 58.6374C119.163 55.0045 122.604 54.8245 121.367 51.7933C119.736 47.8286 108.281 44.3476 108.697 51.3659Z" fill="#0C0E1B"/>
<path d="M103.163 58.0749C102.505 54.6108 102.865 52.3163 104.232 51.2422C105.992 49.8531 108.697 51.0566 108.809 51.1072L108.579 51.619C108.579 51.619 106.065 50.4942 104.575 51.6808C103.388 52.62 103.101 54.7345 103.714 57.9681L103.163 58.0749Z" fill="#0C0E1B"/>
<path d="M97.7591 67.6356C96.5249 67.5967 95.3061 67.3495 94.1543 66.9045L94.3624 66.3815C94.4017 66.3815 98.1921 67.8886 99.9467 66.4321C100.801 65.7235 101.043 64.3963 100.672 62.4955L101.235 62.3887C101.651 64.52 101.341 66.0328 100.318 66.8876C99.5779 67.4269 98.673 67.6914 97.7591 67.6356Z" fill="#0C0E1B"/>
<path d="M118.229 58.3058C118.184 59.1934 118.414 60.0733 118.887 60.8252C119.54 61.8881 120.423 61.6913 120.709 60.7915C120.996 59.8917 120.946 58.4464 120.063 57.676C119.18 56.9055 118.319 57.3217 118.229 58.3058Z" fill="#F9C7C2"/>
<path d="M113.268 102.03C113.268 102.03 105.688 134.084 102.145 152.468C98.4106 171.887 76.2759 187.729 76.2759 187.729L71.417 182.729C71.417 182.729 85.6674 170.256 89.3284 152.125C96.7573 115.324 91.7297 107.912 98.8887 100.101L113.268 102.03Z" fill="#0C0E1B"/>
<path d="M76.692 188.449L70.624 182.206L72.328 180.373L79.3745 186.576L76.692 188.449Z" fill="#58A5FF"/>
<path opacity="0.2" d="M109.242 108.992C103.349 114.109 103.984 132.268 104.603 140.451C107.072 128.815 110.047 115.858 111.79 108.362C111.166 107.901 110.322 108.053 109.242 108.992Z" fill="#0C0E1B"/>
<path d="M118.133 102.738C118.133 102.738 121.541 140.771 119.68 155.28C117.745 170.368 107.87 203.199 107.87 203.199L100.97 202.305C100.97 202.305 106.593 169.767 107.623 154.83C108.714 138.521 103.86 100.843 103.86 100.843L118.133 102.738Z" fill="#0C0E1B"/>
<path d="M109.378 203.599L99.4688 202.317L99.6206 199.393L110.373 200.433L109.378 203.599Z" fill="#58A5FF"/>
<path d="M98.7209 98.925L97.6524 100.539C97.5737 100.668 97.7199 100.826 97.9448 100.854L118.404 103.626C118.578 103.626 118.736 103.581 118.758 103.475L119.118 101.787C119.146 101.669 119 101.546 118.809 101.517L99.0414 98.8687C98.9876 98.8503 98.93 98.8458 98.8739 98.8557C98.8179 98.8655 98.7652 98.8893 98.7209 98.925Z" fill="#58A5FF"/>
<path opacity="0.3" d="M98.7209 98.925L97.6524 100.539C97.5737 100.668 97.7199 100.826 97.9448 100.854L118.404 103.626C118.578 103.626 118.736 103.581 118.758 103.475L119.118 101.787C119.146 101.669 119 101.546 118.809 101.517L99.0414 98.8687C98.9876 98.8503 98.93 98.8458 98.8739 98.8557C98.8179 98.8655 98.7652 98.8893 98.7209 98.925Z" fill="#0C0E1B"/>
<path d="M101.15 101.473L100.622 101.406C100.515 101.406 100.442 101.327 100.458 101.26L100.942 99.0382C100.942 98.9763 101.055 98.937 101.161 98.9482L101.69 99.0213C101.797 99.0213 101.87 99.1 101.859 99.1619L101.37 101.383C101.358 101.451 101.257 101.49 101.15 101.473Z" fill="#0C0E1B"/>
<path d="M114.523 103.301L113.994 103.228C113.887 103.228 113.814 103.149 113.825 103.087L114.315 100.866C114.315 100.804 114.427 100.759 114.534 100.776L115.063 100.844C115.169 100.844 115.243 100.922 115.226 100.99L114.742 103.211C114.725 103.273 114.63 103.318 114.523 103.301Z" fill="#0C0E1B"/>
<defs>
<linearGradient id="paint0_linear" x1="244.696" y1="153.695" x2="249.957" y2="152.382" gradientUnits="userSpaceOnUse">
<stop stop-color="#FFB932"/>
<stop offset="1" stop-color="#FFB040"/>
</linearGradient>
<linearGradient id="paint1_linear" x1="245.864" y1="132.47" x2="250.171" y2="130.201" gradientUnits="userSpaceOnUse">
<stop stop-color="#FFB932"/>
<stop offset="1" stop-color="#FFB040"/>
</linearGradient>
<linearGradient id="paint2_linear" x1="142.345" y1="8.59796" x2="264.958" y2="18.3455" gradientUnits="userSpaceOnUse">
<stop stop-color="#FFB932"/>
<stop offset="1" stop-color="#FFB040"/>
</linearGradient>
<linearGradient id="paint3_linear" x1="180.574" y1="19.7131" x2="196.556" y2="21.9161" gradientUnits="userSpaceOnUse">
<stop stop-color="#FFB932"/>
<stop offset="1" stop-color="#FFB040"/>
</linearGradient>
<linearGradient id="paint4_linear" x1="167.509" y1="51.697" x2="180.877" y2="42.0015" gradientUnits="userSpaceOnUse">
<stop stop-color="#FFB932"/>
<stop offset="1" stop-color="#FFB040"/>
</linearGradient>
<linearGradient id="paint5_linear" x1="159.148" y1="101.325" x2="172.517" y2="91.6295" gradientUnits="userSpaceOnUse">
<stop stop-color="#FFB932"/>
<stop offset="1" stop-color="#FFB040"/>
</linearGradient>
<linearGradient id="paint6_linear" x1="175.122" y1="118.988" x2="191.111" y2="121.193" gradientUnits="userSpaceOnUse">
<stop stop-color="#FFB932"/>
<stop offset="1" stop-color="#FFB040"/>
</linearGradient>
<linearGradient id="paint7_linear" x1="162.877" y1="69.3508" x2="178.86" y2="71.5538" gradientUnits="userSpaceOnUse">
<stop stop-color="#FFB932"/>
<stop offset="1" stop-color="#FFB040"/>
</linearGradient>
</defs>
</svg>
