<svg width="184" height="187" viewBox="0 0 184 187" fill="none" xmlns="http://www.w3.org/2000/svg">
<path d="M169.088 186.379L105.865 186.089C104.055 186.08 102.264 185.716 100.595 185.015C98.9264 184.314 97.412 183.291 96.1386 182.004C94.8653 180.718 93.8581 179.193 93.1746 177.517C92.4912 175.84 92.1449 174.046 92.1555 172.236L92.822 13.7148C92.8301 11.9056 93.1944 10.1158 93.8943 8.44744C94.5941 6.7791 95.6157 5.26493 96.9007 3.9914C98.1858 2.71787 99.7091 1.70992 101.384 1.0251C103.058 0.340276 104.851 -0.00800551 106.66 0.00013963L169.888 0.295281C171.697 0.305253 173.487 0.671672 175.155 1.3736C176.822 2.07552 178.335 3.0992 179.607 4.38611C180.879 5.67303 181.885 7.19797 182.567 8.87378C183.249 10.5496 183.595 12.3434 183.584 14.1528L182.912 172.674C182.893 176.323 181.427 179.816 178.835 182.386C176.243 184.955 172.738 186.392 169.088 186.379Z" fill="#0C0E1B"/>
<path d="M169.779 5.79378L157.521 5.73665C157.121 5.74346 156.726 5.82907 156.359 5.98857C155.993 6.14807 155.661 6.37834 155.383 6.66618C155.105 6.95403 154.887 7.29381 154.741 7.66607C154.595 8.03834 154.523 8.43579 154.531 8.83567V11.0588C154.544 11.8656 154.236 12.6447 153.676 13.2255C153.116 13.8063 152.348 14.1415 151.542 14.1578L127.644 14.0435C127.245 14.033 126.851 13.9439 126.486 13.7813C126.121 13.6187 125.792 13.3857 125.517 13.0957C125.242 12.8057 125.027 12.4643 124.884 12.0911C124.741 11.7179 124.673 11.3202 124.683 10.9207V8.69761C124.703 7.89022 124.401 7.10804 123.846 6.522C123.29 5.93596 122.525 5.59371 121.718 5.57004H117.405L106.68 5.51767C105.412 5.51203 104.157 5.75604 102.984 6.23576C101.811 6.71548 100.744 7.42152 99.8439 8.31357C98.9439 9.20561 98.2284 10.2662 97.7383 11.4348C97.2482 12.6033 96.9931 13.857 96.9875 15.1241L96.3353 169.837C96.3252 172.394 97.3309 174.85 99.1315 176.666C100.932 178.482 103.38 179.508 105.937 179.519L169.036 179.815C171.595 179.825 174.053 178.819 175.87 177.017C177.688 175.216 178.715 172.767 178.728 170.208L179.38 15.4954C179.388 14.2277 179.145 12.9709 178.667 11.797C178.188 10.623 177.483 9.55499 176.591 8.65391C175.699 7.75284 174.638 7.03642 173.469 6.54565C172.301 6.05488 171.046 5.79939 169.779 5.79378Z" fill="#F7F8FB"/>
<path d="M172.663 22.8261C172.668 22.9223 172.643 23.0177 172.593 23.0996C172.542 23.1815 172.467 23.2461 172.379 23.2849C172.291 23.3236 172.193 23.3347 172.099 23.3167C172.004 23.2987 171.917 23.2524 171.849 23.1839C171.782 23.1154 171.736 23.028 171.719 22.9332C171.702 22.8384 171.714 22.7407 171.754 22.6529C171.794 22.5651 171.859 22.4915 171.942 22.4417C172.024 22.3918 172.12 22.3682 172.216 22.3739C172.335 22.3751 172.449 22.4233 172.532 22.508C172.616 22.5927 172.663 22.707 172.663 22.8261Z" fill="#0C0E1B"/>
<path d="M172.659 24.4542C172.659 24.5436 172.632 24.6311 172.583 24.7054C172.533 24.7798 172.462 24.8378 172.38 24.872C172.297 24.9062 172.206 24.9152 172.118 24.8977C172.031 24.8803 171.95 24.8372 171.887 24.774C171.824 24.7107 171.781 24.6301 171.763 24.5424C171.746 24.4547 171.755 24.3638 171.789 24.2811C171.823 24.1985 171.881 24.1279 171.955 24.0782C172.03 24.0285 172.117 24.002 172.207 24.002C172.327 24.002 172.442 24.0496 172.526 24.1344C172.611 24.2192 172.659 24.3342 172.659 24.4542Z" fill="#0C0E1B"/>
<path d="M172.634 26.0915C172.634 26.2178 172.584 26.3389 172.495 26.4281C172.406 26.5174 172.285 26.5676 172.158 26.5676C172.063 26.5363 171.98 26.4757 171.921 26.3945C171.863 26.3133 171.831 26.2156 171.831 26.1153C171.831 26.0151 171.863 25.9174 171.921 25.8362C171.98 25.755 172.063 25.6944 172.158 25.6631C172.277 25.6625 172.391 25.7061 172.479 25.7853C172.567 25.8645 172.623 25.9737 172.634 26.0915Z" fill="#0C0E1B"/>
<path d="M173.439 47.2324H110.274C109.143 47.2324 108.227 48.1489 108.227 49.2794V87.8576C108.227 88.9881 109.143 89.9045 110.274 89.9045H173.439C174.57 89.9045 175.486 88.9881 175.486 87.8576V49.2794C175.486 48.1489 174.57 47.2324 173.439 47.2324Z" fill="#F7F8FB"/>
<path d="M171.592 44.4619H108.426C107.296 44.4619 106.379 45.3784 106.379 46.5089V85.0871C106.379 86.2176 107.296 87.134 108.426 87.134H171.592C172.722 87.134 173.639 86.2176 173.639 85.0871V46.5089C173.639 45.3784 172.722 44.4619 171.592 44.4619Z" fill="#E0E0E0"/>
<path d="M157.325 35.7983H156.683L156.564 36.0934H156.235L156.849 34.7129H157.168L157.787 36.0934H157.449L157.325 35.7983ZM157.226 35.5555L157.007 35.0271L156.788 35.5555H157.226Z" fill="#0C0E1B"/>
<path d="M157.93 34.7128H158.558C158.656 34.7013 158.755 34.7106 158.848 34.7401C158.942 34.7695 159.028 34.8185 159.101 34.8837C159.175 34.9489 159.233 35.0289 159.274 35.1184C159.314 35.2079 159.335 35.3049 159.335 35.403C159.335 35.5011 159.314 35.5982 159.274 35.6877C159.233 35.7772 159.175 35.8572 159.101 35.9224C159.028 35.9876 158.942 36.0365 158.848 36.066C158.755 36.0954 158.656 36.1047 158.558 36.0933H157.93V34.7128ZM158.544 35.8315C158.658 35.8315 158.767 35.7863 158.847 35.706C158.927 35.6256 158.972 35.5167 158.972 35.403C158.972 35.2894 158.927 35.1804 158.847 35.1001C158.767 35.0197 158.658 34.9746 158.544 34.9746H158.254V35.8315H158.544Z" fill="#0C0E1B"/>
<path d="M159.567 34.7128H160.196C160.293 34.7013 160.392 34.7106 160.486 34.7401C160.579 34.7695 160.665 34.8185 160.739 34.8837C160.812 34.9489 160.871 35.0289 160.911 35.1184C160.951 35.2079 160.972 35.3049 160.972 35.403C160.972 35.5011 160.951 35.5982 160.911 35.6877C160.871 35.7772 160.812 35.8572 160.739 35.9224C160.665 35.9876 160.579 36.0365 160.486 36.066C160.392 36.0954 160.293 36.1047 160.196 36.0933H159.567V34.7128ZM160.177 35.8315C160.29 35.8315 160.399 35.7863 160.48 35.706C160.56 35.6256 160.605 35.5167 160.605 35.403C160.605 35.2894 160.56 35.1804 160.48 35.1001C160.399 35.0197 160.29 34.9746 160.177 34.9746H159.886V35.8315H160.177Z" fill="#0C0E1B"/>
<path d="M163.019 36.0885V35.2602L162.609 35.9409H162.467L162.062 35.2793V36.0885H161.762V34.708H162.024L162.543 35.5649L163.052 34.708H163.314V36.0885H163.019Z" fill="#0C0E1B"/>
<path d="M163.562 35.4033C163.553 35.252 163.59 35.1017 163.668 34.9717C163.746 34.8417 163.861 34.7381 163.998 34.6742C164.135 34.6103 164.289 34.589 164.438 34.6132C164.588 34.6374 164.726 34.7059 164.837 34.8099C164.947 34.9138 165.023 35.0484 165.056 35.1963C165.089 35.3442 165.077 35.4985 165.021 35.6393C164.965 35.7801 164.868 35.9009 164.743 35.9862C164.618 36.0714 164.47 36.1171 164.318 36.1173C164.221 36.1225 164.124 36.1079 164.033 36.0743C163.941 36.0408 163.858 35.9891 163.787 35.9224C163.716 35.8556 163.66 35.7752 163.621 35.6859C163.582 35.5967 163.562 35.5005 163.562 35.4033ZM164.752 35.4033C164.75 35.318 164.723 35.2352 164.674 35.1652C164.625 35.0953 164.557 35.0412 164.478 35.0099C164.398 34.9786 164.312 34.9713 164.228 34.9891C164.145 35.0069 164.069 35.0489 164.009 35.1098C163.949 35.1708 163.909 35.2479 163.893 35.3317C163.877 35.4155 163.886 35.5021 163.919 35.5807C163.952 35.6593 164.008 35.7264 164.079 35.7736C164.15 35.8208 164.233 35.846 164.318 35.846C164.376 35.8473 164.434 35.8368 164.488 35.8149C164.542 35.793 164.591 35.7602 164.631 35.7187C164.672 35.6772 164.703 35.6278 164.724 35.5735C164.745 35.5192 164.754 35.4613 164.752 35.4033Z" fill="#0C0E1B"/>
<path d="M166.204 36.0885L165.937 35.7029H165.642V36.0885H165.323V34.708H165.918C166.289 34.708 166.518 34.8984 166.518 35.184C166.519 35.2764 166.492 35.367 166.443 35.4448C166.393 35.5226 166.321 35.5841 166.237 35.622L166.546 36.0647L166.204 36.0885ZM165.904 34.9651H165.642V35.4411H165.904C166.099 35.4411 166.194 35.3507 166.194 35.1983C166.194 35.046 166.099 34.9698 165.904 34.9698V34.9651Z" fill="#0C0E1B"/>
<path d="M167.846 35.8362V36.0885H166.775V34.708H167.822V34.9651H167.094V35.265H167.736V35.5125H167.094V35.8315L167.846 35.8362Z" fill="#0C0E1B"/>
<path d="M168.964 35.5223H168.617V35.8603H168.35V35.5223H168.007V35.2843H168.35V34.9463H168.602V35.2843H168.95L168.964 35.5223Z" fill="#0C0E1B"/>
<path d="M104.161 24.7731C104.182 24.4328 104.302 24.1061 104.507 23.8337C104.712 23.5613 104.993 23.3551 105.314 23.241C105.635 23.1268 105.983 23.1096 106.314 23.1916C106.644 23.2736 106.944 23.4511 107.175 23.702L106.699 24.1352C106.604 24.0173 106.483 23.9226 106.346 23.8583C106.21 23.7939 106.06 23.7616 105.908 23.7639C105.641 23.7639 105.384 23.8702 105.195 24.0595C105.006 24.2488 104.899 24.5055 104.899 24.7731C104.899 25.0408 105.006 25.2975 105.195 25.4867C105.384 25.676 105.641 25.7823 105.908 25.7823C106.06 25.7846 106.21 25.7523 106.346 25.688C106.483 25.6236 106.604 25.5289 106.699 25.411L107.175 25.8442C106.944 26.0951 106.644 26.2726 106.314 26.3546C105.983 26.4366 105.635 26.4194 105.314 26.3053C104.993 26.1911 104.712 25.9849 104.507 25.7125C104.302 25.4401 104.182 25.1134 104.161 24.7731Z" fill="#0C0E1B"/>
<path d="M109.741 24.9681V26.3534H109.084V26.0487C109.003 26.1669 108.892 26.2608 108.762 26.3204C108.632 26.38 108.488 26.4029 108.346 26.3867C107.775 26.3867 107.437 26.0725 107.437 25.6536C107.437 25.2347 107.741 24.9253 108.479 24.9253H109.041C109.041 24.6254 108.86 24.4492 108.479 24.4492C108.228 24.4475 107.983 24.5259 107.779 24.673L107.527 24.1969C107.839 23.9967 108.204 23.894 108.574 23.9018C109.322 23.8875 109.741 24.235 109.741 24.9681ZM109.041 25.587V25.3394H108.565C108.236 25.3394 108.132 25.4584 108.132 25.6203C108.132 25.7821 108.284 25.9154 108.531 25.9154C108.64 25.9203 108.747 25.8912 108.838 25.8324C108.93 25.7735 109 25.6878 109.041 25.587Z" fill="#0C0E1B"/>
<path d="M111.883 23.8882V24.5404H111.726C111.636 24.5324 111.546 24.5448 111.462 24.5764C111.378 24.608 111.302 24.6581 111.24 24.723C111.178 24.7878 111.131 24.8659 111.103 24.9513C111.075 25.0367 111.066 25.1272 111.078 25.2163V26.3636H110.378V23.9358H111.05V24.2547C111.148 24.1305 111.276 24.0323 111.421 23.9684C111.566 23.9045 111.725 23.877 111.883 23.8882Z" fill="#0C0E1B"/>
<path d="M114.749 23.0068V26.3391H114.082V26.0916C113.989 26.1987 113.872 26.2827 113.74 26.3372C113.609 26.3917 113.467 26.4152 113.325 26.4058C113.007 26.3861 112.709 26.2459 112.49 26.0137C112.272 25.7815 112.15 25.4748 112.15 25.1562C112.15 24.8375 112.272 24.5308 112.49 24.2986C112.709 24.0664 113.007 23.9262 113.325 23.9065C113.461 23.9011 113.596 23.9246 113.721 23.9755C113.847 24.0264 113.96 24.1035 114.054 24.2017V23.0259L114.749 23.0068ZM114.082 25.1395C114.072 25.0196 114.027 24.9054 113.953 24.8106C113.879 24.7159 113.779 24.6448 113.665 24.606C113.551 24.5673 113.428 24.5625 113.312 24.5924C113.195 24.6222 113.09 24.6854 113.009 24.7741C112.928 24.8629 112.874 24.9733 112.855 25.092C112.835 25.2107 112.851 25.3325 112.9 25.4425C112.948 25.5525 113.028 25.6458 113.129 25.7112C113.23 25.7766 113.348 25.8112 113.468 25.8107C113.554 25.8118 113.639 25.7948 113.718 25.7606C113.797 25.7265 113.868 25.6761 113.926 25.6127C113.983 25.5493 114.027 25.4744 114.054 25.3929C114.081 25.3113 114.091 25.225 114.082 25.1395Z" fill="#0C0E1B"/>
<path d="M115.163 26.1297L115.396 25.6203C115.651 25.775 115.944 25.8573 116.243 25.8583C116.567 25.8583 116.686 25.7726 116.686 25.6346C116.686 25.2395 115.22 25.6346 115.22 24.6825C115.22 24.2065 115.639 23.897 116.343 23.897C116.673 23.8893 117 23.9629 117.295 24.1113L117.062 24.6111C116.848 24.4918 116.607 24.4295 116.362 24.4302C116.048 24.4302 115.915 24.5302 115.915 24.6587C115.915 25.0729 117.376 24.6587 117.376 25.6108C117.376 26.063 116.957 26.382 116.234 26.382C115.861 26.3946 115.491 26.3075 115.163 26.1297Z" fill="#0C0E1B"/>
<path d="M132.138 126.912H131.319V126.317H133.7V126.912H132.886V128.978H132.133L132.138 126.912Z" fill="#0C0E1B"/>
<path d="M133.809 127.645C133.789 127.347 133.859 127.051 134.01 126.794C134.161 126.537 134.385 126.331 134.655 126.203C134.924 126.075 135.225 126.031 135.52 126.077C135.814 126.123 136.088 126.257 136.306 126.46C136.524 126.664 136.675 126.928 136.74 127.219C136.806 127.51 136.782 127.814 136.672 128.091C136.563 128.368 136.372 128.606 136.126 128.773C135.879 128.941 135.588 129.03 135.29 129.03C135.1 129.042 134.91 129.015 134.732 128.95C134.553 128.886 134.39 128.786 134.251 128.656C134.112 128.527 134.002 128.37 133.926 128.196C133.85 128.022 133.81 127.835 133.809 127.645ZM136.009 127.645C136 127.505 135.951 127.37 135.867 127.258C135.783 127.145 135.668 127.06 135.536 127.012C135.405 126.964 135.262 126.956 135.125 126.988C134.989 127.021 134.865 127.092 134.768 127.194C134.672 127.296 134.608 127.424 134.583 127.562C134.559 127.701 134.575 127.843 134.631 127.972C134.686 128.101 134.778 128.21 134.895 128.288C135.012 128.365 135.149 128.406 135.29 128.406C135.388 128.407 135.486 128.388 135.576 128.349C135.666 128.311 135.748 128.254 135.815 128.183C135.883 128.111 135.935 128.026 135.968 127.934C136.001 127.841 136.015 127.743 136.009 127.645Z" fill="#0C0E1B"/>
<path d="M137.694 126.912H136.875V126.317H139.255V126.912H138.441V128.978H137.694V126.912Z" fill="#0C0E1B"/>
<path d="M141.216 128.464H140.088L139.878 128.978H139.112L140.288 126.317H141.03L142.206 128.978H141.425L141.216 128.464ZM140.992 127.907L140.649 127.055L140.307 127.907H140.992Z" fill="#0C0E1B"/>
<path d="M142.397 126.317H143.149V128.383H144.42V128.978H142.397V126.317Z" fill="#0C0E1B"/>
<path d="M126.031 139.222V140.046H125.674V139.232C125.041 139.221 124.433 138.989 123.955 138.575L124.165 138.165C124.584 138.533 125.116 138.746 125.674 138.77V136.866C124.883 136.671 124.079 136.428 124.079 135.481C124.079 134.79 124.555 134.195 125.674 134.11V133.281H126.031V134.1C126.548 134.115 127.051 134.269 127.487 134.548L127.306 134.971C126.924 134.724 126.485 134.58 126.031 134.552V136.456C126.84 136.647 127.697 136.875 127.697 137.842C127.697 138.556 127.173 139.156 126.031 139.222ZM125.674 136.366V134.571C124.931 134.638 124.602 135.019 124.602 135.471C124.602 136.028 125.083 136.228 125.674 136.38V136.366ZM127.173 137.875C127.173 137.304 126.649 137.113 126.031 136.961V138.756C126.821 138.713 127.173 138.346 127.173 137.889V137.875Z" fill="#0C0E1B"/>
<path d="M131.695 134.152V139.175H131.177V134.628H129.991V134.152H131.695Z" fill="#0C0E1B"/>
<path d="M136.732 137.789C136.732 138.675 135.98 139.218 134.78 139.218C133.58 139.218 132.843 138.661 132.843 137.789C132.839 137.506 132.931 137.23 133.104 137.006C133.277 136.781 133.52 136.621 133.795 136.552C133.561 136.478 133.358 136.33 133.216 136.131C133.073 135.932 132.999 135.692 133.004 135.447C133.004 134.629 133.699 134.119 134.761 134.119C135.823 134.119 136.537 134.629 136.537 135.447C136.54 135.694 136.464 135.935 136.319 136.134C136.174 136.333 135.968 136.48 135.732 136.552C136.015 136.613 136.269 136.769 136.451 136.994C136.633 137.219 136.732 137.5 136.732 137.789ZM136.203 137.789C136.203 137.171 135.67 136.785 134.775 136.785C133.88 136.785 133.347 137.171 133.347 137.789C133.347 138.408 133.871 138.803 134.775 138.803C135.68 138.803 136.203 138.403 136.203 137.78V137.789ZM134.775 136.361C135.561 136.361 136.027 136.009 136.027 135.462C136.027 134.914 135.551 134.552 134.775 134.552C133.999 134.552 133.533 134.895 133.533 135.457C133.533 136.019 133.999 136.366 134.78 136.366L134.775 136.361Z" fill="#0C0E1B"/>
<path d="M137.451 136.675C137.451 135.076 138.289 134.119 139.45 134.119C140.612 134.119 141.459 135.071 141.459 136.675C141.459 138.28 140.612 139.232 139.45 139.232C138.289 139.232 137.451 138.275 137.451 136.675ZM140.931 136.675C140.931 135.333 140.326 134.595 139.45 134.595C138.574 134.595 137.974 135.333 137.974 136.675C137.974 138.018 138.574 138.756 139.45 138.756C140.326 138.756 140.931 138.018 140.931 136.675Z" fill="#0C0E1B"/>
<path d="M142.892 138.827C142.884 138.972 142.85 139.114 142.792 139.246L142.492 140.236H142.168L142.411 139.194C142.333 139.17 142.266 139.121 142.219 139.055C142.173 138.988 142.15 138.908 142.154 138.827C142.152 138.777 142.161 138.726 142.179 138.679C142.197 138.632 142.224 138.59 142.259 138.553C142.295 138.517 142.337 138.489 142.383 138.47C142.43 138.45 142.48 138.441 142.53 138.441C142.629 138.445 142.723 138.488 142.79 138.56C142.858 138.632 142.895 138.728 142.892 138.827Z" fill="#0C0E1B"/>
<path d="M147.143 138.727V139.203H143.596V138.842L145.686 136.795C146.252 136.233 146.362 135.895 146.362 135.552C146.362 134.971 145.952 134.6 145.186 134.6C144.93 134.583 144.674 134.625 144.437 134.721C144.199 134.818 143.987 134.967 143.815 135.157L143.448 134.843C143.674 134.599 143.95 134.407 144.258 134.283C144.566 134.159 144.897 134.104 145.229 134.124C146.248 134.124 146.89 134.643 146.89 135.481C146.89 135.957 146.743 136.39 146.067 137.052L144.358 138.732L147.143 138.727Z" fill="#0C0E1B"/>
<path d="M147.757 136.675C147.757 135.076 148.595 134.119 149.756 134.119C150.918 134.119 151.77 135.071 151.77 136.675C151.77 138.28 150.923 139.232 149.756 139.232C148.59 139.232 147.757 138.275 147.757 136.675ZM151.237 136.675C151.237 135.333 150.632 134.595 149.756 134.595C148.881 134.595 148.281 135.333 148.281 136.675C148.281 138.018 148.885 138.756 149.756 138.756C150.628 138.756 151.237 138.018 151.237 136.675Z" fill="#0C0E1B"/>
<path d="M164.78 146.892H115.967C111.687 146.892 108.217 150.361 108.217 154.642V156.022C108.217 160.302 111.687 163.772 115.967 163.772H164.78C169.06 163.772 172.53 160.302 172.53 156.022V154.642C172.53 150.361 169.06 146.892 164.78 146.892Z" fill="url(#paint0_linear)"/>
<path d="M162.281 146.892H113.468C109.188 146.892 105.718 150.361 105.718 154.642V156.022C105.718 160.302 109.188 163.772 113.468 163.772H162.281C166.561 163.772 170.031 160.302 170.031 156.022V154.642C170.031 150.361 166.561 146.892 162.281 146.892Z" fill="url(#paint1_linear)"/>
<path d="M135.942 154.404C135.942 155.27 135.318 155.794 134.28 155.794H133.29V157.003H132.724V153.014H134.28C135.318 153.014 135.942 153.537 135.942 154.404ZM135.375 154.404C135.375 153.832 134.99 153.509 134.261 153.509H133.309V155.299H134.261C134.99 155.299 135.375 154.975 135.375 154.404Z" fill="white"/>
<path d="M139.126 156.008H137.003L136.565 157.003H135.98L137.789 153.014H138.36L140.174 157.003H139.574L139.126 156.008ZM138.926 155.532L138.065 153.575L137.203 155.575L138.926 155.532Z" fill="white"/>
<path d="M142.045 155.622V157.003H141.478V155.613L139.893 153.014H140.502L141.783 155.118L143.063 153.014H143.63L142.045 155.622Z" fill="white"/>
<path d="M146.891 119.472C147.192 119.45 147.49 119.399 147.781 119.32C148.604 119.054 149.288 118.474 149.685 117.706C149.818 117.442 149.915 117.162 149.975 116.873C150.025 116.55 150.042 116.223 150.028 115.897C150.028 115.208 150.028 114.461 150.028 113.655C150.028 112.041 150.028 110.208 149.99 108.185C149.951 106.162 149.966 103.939 149.951 101.554C149.951 100.959 149.951 100.354 149.951 99.7354C149.979 99.1262 149.832 98.5218 149.528 97.9931C149.217 97.45 148.749 97.0136 148.185 96.7412C147.589 96.4731 146.932 96.3664 146.281 96.4317L128.844 96.4984C128.097 96.5028 127.375 96.7747 126.811 97.2648C126.254 97.7477 125.889 98.4152 125.783 99.1451C125.741 99.5117 125.729 99.881 125.745 100.25V101.363C125.745 102.106 125.745 102.844 125.745 103.572C125.745 106.486 125.745 109.285 125.745 111.984C125.745 113.322 125.745 114.631 125.745 115.897C125.698 116.508 125.807 117.121 126.064 117.677C126.321 118.209 126.726 118.655 127.23 118.963C128.22 119.629 129.439 119.391 130.534 119.439H133.714H143.315H145.924H146.605H146.833H146.605H145.924L143.315 119.472L133.714 119.543H130.534H128.839C128.234 119.544 127.64 119.379 127.121 119.067C126.582 118.74 126.149 118.264 125.873 117.696C125.599 117.113 125.48 116.469 125.526 115.826C125.526 114.559 125.526 113.25 125.526 111.913C125.526 109.232 125.502 106.419 125.493 103.501C125.493 102.773 125.493 102.035 125.493 101.292C125.493 100.926 125.493 100.549 125.493 100.178C125.479 99.7969 125.492 99.4152 125.531 99.0357C125.648 98.2483 126.043 97.529 126.645 97.0077C127.254 96.4789 128.032 96.1851 128.839 96.1794L146.272 96.1318C146.952 96.0689 147.636 96.1855 148.257 96.4698C148.857 96.764 149.354 97.2317 149.685 97.8122C150.004 98.3753 150.158 99.0173 150.128 99.664C150.128 100.278 150.128 100.887 150.128 101.482C150.128 103.863 150.128 106.086 150.128 108.114V113.583C150.128 114.388 150.128 115.135 150.128 115.826C150.14 116.16 150.117 116.495 150.061 116.825C149.993 117.121 149.889 117.407 149.751 117.677C149.544 118.068 149.26 118.412 148.917 118.69C148.573 118.969 148.177 119.175 147.752 119.296C147.533 119.356 147.308 119.391 147.081 119.401L146.891 119.472Z" fill="#58A5FF"/>
<path d="M141.978 111.394H141.816H141.34L139.593 111.417L133.714 111.47H133.666V111.422C133.619 111.113 133.571 110.784 133.523 110.47C133.114 107.614 132.752 105.081 132.514 103.42L132.552 103.448H130.981H130.567C130.518 103.456 130.469 103.456 130.42 103.448H130.567H130.981L132.548 103.42H132.576V103.453C132.824 105.11 133.2 107.652 133.623 110.499C133.671 110.832 133.719 111.16 133.766 111.451L133.709 111.403H139.583H141.811L141.978 111.394Z" fill="#58A5FF"/>
<path d="M133.466 109.732H133.628H134.104L135.875 109.704L141.973 109.651L141.92 109.694C142.097 108.666 142.282 107.557 142.477 106.405C142.582 105.814 142.677 105.234 142.773 104.682L142.83 104.743L135.642 104.767H132.933H133.509L135.637 104.739L142.825 104.677H142.887V104.739C142.792 105.296 142.696 105.876 142.592 106.467C142.397 107.619 142.206 108.728 142.03 109.756V109.799H141.987H135.889H133.509L133.466 109.732Z" fill="#58A5FF"/>
<path d="M135.794 113.683C135.794 113.683 135.794 113.612 135.747 113.488C135.692 113.317 135.586 113.167 135.442 113.06C135.352 112.994 135.249 112.948 135.139 112.925C135.03 112.902 134.917 112.903 134.808 112.928C134.699 112.952 134.597 113 134.508 113.067C134.419 113.135 134.346 113.221 134.293 113.319C134.24 113.417 134.208 113.526 134.201 113.637C134.194 113.749 134.21 113.86 134.25 113.965C134.289 114.069 134.35 114.164 134.43 114.243C134.509 114.322 134.604 114.382 134.709 114.421C134.831 114.464 134.963 114.477 135.091 114.458C135.22 114.439 135.342 114.389 135.447 114.312C135.591 114.206 135.696 114.055 135.747 113.883C135.785 113.76 135.785 113.683 135.794 113.683C135.811 113.752 135.811 113.824 135.794 113.893C135.755 114.081 135.651 114.25 135.499 114.369C135.386 114.46 135.251 114.521 135.108 114.546C134.965 114.571 134.818 114.559 134.68 114.512C134.506 114.453 134.354 114.342 134.246 114.194C134.138 114.046 134.078 113.867 134.076 113.683C134.075 113.503 134.131 113.327 134.235 113.179C134.339 113.032 134.486 112.92 134.656 112.86C134.77 112.817 134.891 112.798 135.012 112.807C135.133 112.815 135.251 112.849 135.358 112.907C135.465 112.964 135.558 113.045 135.63 113.142C135.703 113.239 135.754 113.351 135.78 113.469C135.803 113.538 135.808 113.612 135.794 113.683Z" fill="#58A5FF"/>
<path d="M141.112 113.645C141.112 113.645 141.112 113.569 141.064 113.445C141.011 113.275 140.904 113.126 140.759 113.022C140.653 112.945 140.53 112.896 140.401 112.879C140.271 112.861 140.139 112.876 140.017 112.922C139.869 112.979 139.743 113.08 139.654 113.211C139.564 113.342 139.517 113.496 139.517 113.655C139.518 113.813 139.567 113.967 139.658 114.096C139.749 114.226 139.878 114.324 140.026 114.378C140.148 114.423 140.28 114.437 140.409 114.419C140.537 114.401 140.66 114.351 140.764 114.274C140.908 114.164 141.014 114.013 141.069 113.84C141.102 113.717 141.102 113.645 141.112 113.645C141.128 113.713 141.128 113.783 141.112 113.85C141.073 114.039 140.968 114.207 140.817 114.326C140.689 114.432 140.533 114.5 140.368 114.521C140.203 114.541 140.035 114.514 139.885 114.443C139.734 114.371 139.608 114.258 139.52 114.117C139.432 113.975 139.386 113.812 139.388 113.645C139.388 113.464 139.444 113.288 139.548 113.139C139.652 112.991 139.799 112.879 139.969 112.817C140.107 112.767 140.254 112.753 140.398 112.777C140.542 112.8 140.678 112.86 140.793 112.95C140.945 113.069 141.051 113.237 141.093 113.426C141.117 113.497 141.124 113.572 141.112 113.645Z" fill="#58A5FF"/>
<path d="M144.725 103.824C144.731 104.297 144.597 104.76 144.34 105.156C144.082 105.552 143.713 105.862 143.279 106.047C142.844 106.232 142.365 106.284 141.901 106.196C141.437 106.108 141.01 105.884 140.674 105.553C140.337 105.221 140.107 104.797 140.013 104.334C139.918 103.872 139.963 103.392 140.143 102.955C140.322 102.518 140.627 102.144 141.019 101.881C141.411 101.618 141.872 101.478 142.345 101.478C142.97 101.477 143.571 101.724 144.016 102.163C144.461 102.602 144.716 103.199 144.725 103.824Z" fill="#58A5FF"/>
<path d="M142.644 102.93V104.72H142.23V103.263H141.873V102.93H142.644Z" fill="white"/>
<path d="M169.46 42.1582H106.294C105.164 42.1582 104.247 43.0747 104.247 44.2052V82.7834C104.247 83.9139 105.164 84.8303 106.294 84.8303H169.46C170.59 84.8303 171.507 83.9139 171.507 82.7834V44.2052C171.507 43.0747 170.59 42.1582 169.46 42.1582Z" fill="#58A5FF"/>
<path d="M115.32 51.9078C115.32 52.4552 114.886 52.7694 114.058 52.7694H112.425V49.6133H113.968C114.758 49.6133 115.163 49.9417 115.163 50.4321C115.166 50.5757 115.128 50.7174 115.054 50.8405C114.98 50.9635 114.872 51.063 114.744 51.1271C114.914 51.1732 115.063 51.2754 115.168 51.4171C115.272 51.5588 115.326 51.7318 115.32 51.9078ZM113.154 50.1607V50.9081H113.877C114.234 50.9081 114.429 50.7796 114.429 50.532C114.429 50.2845 114.234 50.1607 113.877 50.1607H113.154ZM114.582 51.8316C114.582 51.565 114.377 51.4365 114.001 51.4365H113.149V52.2172H114.001C114.382 52.2172 114.587 52.103 114.587 51.8316H114.582Z" fill="white"/>
<path d="M117.952 52.0934H116.486L116.205 52.7694H115.458L116.886 49.6133H117.605L119.033 52.7694H118.266L117.952 52.0934ZM117.724 51.5365L117.224 50.3273L116.748 51.5365H117.724Z" fill="white"/>
<path d="M122.222 49.6128V52.7499H121.622L120.047 50.8457V52.7499H119.318V49.5938H119.923L121.489 51.4979V49.5938L122.222 49.6128Z" fill="white"/>
<path d="M124.117 51.5265L123.693 51.9692V52.7499H122.97V49.5938H123.693V51.0647L125.093 49.5938H125.902L124.598 51.0219L125.983 52.7499H125.126L124.117 51.5265Z" fill="white"/>
<path d="M114.73 65.0363H114.149V65.798H113.854V65.0363H112.216V64.8221L113.754 62.918H114.087L112.602 64.7888H113.863V64.1176H114.149V64.7888H114.73V65.0363Z" fill="white"/>
<path d="M116.857 64.9655C116.857 65.4416 116.505 65.8224 115.805 65.8224C115.423 65.8361 115.05 65.7033 114.763 65.4511L114.91 65.2131C115.153 65.4389 115.474 65.5603 115.805 65.5511C116.281 65.5511 116.553 65.3273 116.553 64.9655C116.553 64.6038 116.305 64.3895 115.767 64.3895H115.562V64.1753L116.367 63.1709H114.882V62.9043H116.748V63.1185L115.929 64.1468C116.548 64.1753 116.857 64.5038 116.857 64.9655Z" fill="white"/>
<path d="M119.204 64.9464C119.204 65.4224 118.857 65.8223 118.152 65.8223C117.77 65.836 117.397 65.7031 117.11 65.451L117.257 65.213C117.498 65.4389 117.818 65.5604 118.147 65.5509C118.623 65.5509 118.9 65.3082 118.9 64.9559C118.9 64.6036 118.666 64.3513 117.947 64.3513H117.333L117.481 62.8994H119.066V63.166H117.743L117.643 64.0895H118.014C118.871 64.0895 119.204 64.4323 119.204 64.9464Z" fill="white"/>
<path d="M121.756 64.9321C121.754 65.0572 121.727 65.1807 121.675 65.2947C121.624 65.4087 121.549 65.5108 121.456 65.5945C121.363 65.6781 121.253 65.7416 121.135 65.7808C121.016 65.82 120.89 65.8341 120.765 65.8223C119.994 65.8223 119.58 65.2891 119.58 64.3941C119.58 63.4992 120.118 62.8946 120.903 62.8946C121.142 62.8851 121.378 62.9394 121.589 63.0517L121.47 63.2897C121.299 63.1935 121.104 63.1474 120.908 63.1564C120.28 63.1564 119.88 63.5563 119.88 64.3418C119.876 64.4211 119.876 64.5005 119.88 64.5798C119.965 64.423 120.095 64.2945 120.252 64.2099C120.409 64.1254 120.588 64.0885 120.765 64.1038C120.886 64.0878 121.008 64.097 121.125 64.1308C121.241 64.1647 121.349 64.2223 121.443 64.3002C121.536 64.3781 121.612 64.4745 121.665 64.5833C121.719 64.692 121.75 64.8108 121.756 64.9321ZM121.46 64.9321C121.46 64.5512 121.18 64.3085 120.732 64.3085C120.641 64.2979 120.549 64.3062 120.461 64.3329C120.374 64.3595 120.293 64.4039 120.223 64.4633C120.153 64.5227 120.097 64.5958 120.056 64.6781C120.016 64.7604 119.993 64.8501 119.989 64.9416C119.989 65.2605 120.251 65.5604 120.751 65.5604C120.839 65.5711 120.929 65.5632 121.013 65.5371C121.098 65.511 121.177 65.4673 121.244 65.409C121.31 65.3506 121.364 65.2789 121.402 65.1983C121.439 65.1178 121.459 65.0303 121.46 64.9416V64.9321Z" fill="white"/>
<path d="M128.02 65.7985L127.325 64.8893L126.63 65.7985H126.302L127.163 64.6799L126.34 63.623H126.673L127.325 64.4752L127.982 63.623H128.306L127.482 64.6799L128.353 65.7985H128.02Z" fill="white"/>
<path d="M130.229 65.7985L129.539 64.8893L128.839 65.7985H128.506L129.367 64.6799L128.549 63.623H128.882L129.534 64.4752L130.186 63.623H130.51L129.691 64.6799L130.562 65.7985H130.229Z" fill="white"/>
<path d="M132.443 65.7985L131.748 64.8893L131.053 65.7985H130.743L131.605 64.6799L130.743 63.623H131.076L131.729 64.4752L132.386 63.623H132.709L131.886 64.6799L132.757 65.7985H132.443Z" fill="white"/>
<path d="M134.651 65.7985L133.961 64.8893L133.266 65.7985H132.933L133.794 64.6799L132.976 63.623H133.304L133.961 64.4752L134.613 63.623H134.937L134.118 64.6799L134.985 65.7985H134.651Z" fill="white"/>
<path d="M142.287 65.7985L141.592 64.8893L140.897 65.7985H140.569L141.43 64.6799L140.607 63.623H140.94L141.592 64.4752L142.249 63.623H142.573L141.749 64.6799L142.62 65.7985H142.287Z" fill="white"/>
<path d="M144.496 65.7985L143.806 64.8893L143.12 65.7985H142.787L143.649 64.6799L142.83 63.623H143.158L143.815 64.4752L144.468 63.623H144.791L143.972 64.6799L144.839 65.7985H144.496Z" fill="white"/>
<path d="M146.705 65.7985L146.015 64.8893L145.32 65.7985H144.986L145.848 64.6799L145.024 63.623H145.358L146.01 64.4752L146.667 63.623H146.986L146.167 64.6799L147.038 65.7985H146.705Z" fill="white"/>
<path d="M148.918 65.7985L148.228 64.8893L147.528 65.7985H147.2L148.062 64.6799L147.238 63.623H147.571L148.228 64.4752L148.88 63.623H149.204L148.385 64.6799L149.252 65.7985H148.918Z" fill="white"/>
<path d="M155.773 62.8994V65.7985H155.497V63.166H154.817V62.8994H155.773Z" fill="white"/>
<path d="M158.382 64.9655C158.382 65.4416 158.03 65.8224 157.33 65.8224C156.948 65.8361 156.575 65.7033 156.287 65.4511L156.43 65.2131C156.674 65.4392 156.997 65.5605 157.33 65.5511C157.806 65.5511 158.072 65.3273 158.072 64.9655C158.072 64.6038 157.83 64.3895 157.292 64.3895H157.087V64.1753L157.887 63.1709H156.406V62.9043H158.268V63.1185L157.449 64.1468C158.073 64.1753 158.382 64.5038 158.382 64.9655Z" fill="white"/>
<path d="M161.263 65.0363H160.682V65.798H160.387V65.0363H158.749V64.8221L160.287 62.918H160.615L159.135 64.7888H160.391V64.1176H160.682V64.7888H161.263V65.0363Z" fill="white"/>
<path d="M163.5 65.5319V65.7985H161.467V65.6033L162.671 64.4227C163 64.099 163.062 63.9038 163.062 63.7039C163.062 63.3707 162.824 63.1612 162.381 63.1612C162.233 63.1524 162.086 63.177 161.949 63.233C161.812 63.289 161.69 63.3751 161.591 63.4849L161.376 63.304C161.507 63.1634 161.666 63.0534 161.844 62.9818C162.022 62.9102 162.213 62.8788 162.405 62.8899C162.995 62.8899 163.357 63.1898 163.357 63.6706C163.351 63.8481 163.305 64.022 163.222 64.1794C163.14 64.3367 163.023 64.4736 162.881 64.5798L161.895 65.5319H163.5Z" fill="white"/>
<path d="M110.75 71.8152C110.756 71.6649 110.807 71.5197 110.896 71.3984C110.984 71.277 111.108 71.1849 111.249 71.1338C111.391 71.0828 111.544 71.075 111.69 71.1116C111.836 71.1481 111.968 71.2274 112.068 71.3391L111.864 71.5296C111.822 71.4777 111.769 71.4362 111.709 71.4081C111.649 71.38 111.583 71.3662 111.516 71.3677C111.399 71.3677 111.286 71.4143 111.203 71.4974C111.12 71.5804 111.073 71.693 111.073 71.8104C111.073 71.9278 111.12 72.0404 111.203 72.1235C111.286 72.2065 111.399 72.2531 111.516 72.2531C111.583 72.2537 111.649 72.239 111.709 72.2101C111.769 72.1812 111.822 72.139 111.864 72.0865L112.068 72.2769C111.999 72.3595 111.911 72.4248 111.812 72.4677C111.713 72.5107 111.605 72.5301 111.497 72.5245C111.401 72.5297 111.304 72.5151 111.214 72.4818C111.123 72.4485 111.041 72.3971 110.971 72.3307C110.901 72.2643 110.845 72.1843 110.807 72.0957C110.769 72.0071 110.75 71.9116 110.75 71.8152Z" fill="white"/>
<path d="M113.13 72.2103H112.487L112.363 72.5054H112.035L112.654 71.1201H112.968L113.587 72.5054H113.249L113.13 72.2103ZM113.025 71.9675L112.806 71.4343L112.587 71.9675H113.025Z" fill="white"/>
<path d="M114.634 72.5054L114.368 72.1198H114.082V72.5054H113.763V71.1201H114.358C114.729 71.1201 114.963 71.3153 114.963 71.6247C114.963 71.7176 114.936 71.8086 114.885 71.8864C114.835 71.9642 114.762 72.0255 114.677 72.0627L114.986 72.5054H114.634ZM114.334 71.3819H114.082V71.858H114.344C114.539 71.858 114.639 71.7675 114.639 71.62C114.639 71.4724 114.529 71.3819 114.334 71.3819Z" fill="white"/>
<path d="M115.096 72.3679L115.205 72.1299C115.345 72.2259 115.512 72.2759 115.681 72.2727C115.872 72.2727 115.948 72.2108 115.948 72.1251C115.948 71.8633 115.144 72.0442 115.144 71.5301C115.144 71.292 115.334 71.0969 115.729 71.0969C115.896 71.0936 116.061 71.1364 116.205 71.2206L116.11 71.4634C115.993 71.395 115.86 71.3573 115.724 71.3539C115.534 71.3539 115.462 71.4253 115.462 71.5158C115.462 71.7681 116.267 71.5919 116.267 72.1013C116.267 72.3298 116.077 72.5297 115.681 72.5297C115.474 72.5378 115.27 72.4813 115.096 72.3679Z" fill="white"/>
<path d="M118.295 71.1201V72.5054H117.976V71.9389H117.348V72.5054H117.029V71.1201H117.348V71.6676H117.976V71.1201H118.295Z" fill="white"/>
<path d="M118.542 71.8154C118.534 71.6641 118.571 71.5138 118.649 71.3838C118.726 71.2539 118.841 71.1502 118.979 71.0863C119.116 71.0224 119.269 71.0012 119.419 71.0253C119.569 71.0495 119.707 71.118 119.818 71.222C119.928 71.3259 120.004 71.4605 120.037 71.6084C120.07 71.7563 120.058 71.9106 120.002 72.0514C119.946 72.1922 119.849 72.3131 119.724 72.3983C119.599 72.4835 119.451 72.5292 119.299 72.5294C119.202 72.5353 119.105 72.5211 119.013 72.4879C118.921 72.4546 118.837 72.403 118.767 72.3361C118.696 72.2692 118.639 72.1884 118.601 72.0989C118.562 72.0094 118.542 71.9129 118.542 71.8154ZM119.728 71.8154C119.726 71.7299 119.699 71.6469 119.65 71.5769C119.601 71.5068 119.532 71.4528 119.453 71.4216C119.373 71.3904 119.286 71.3835 119.203 71.4016C119.119 71.4198 119.043 71.4622 118.983 71.5237C118.924 71.5851 118.884 71.6627 118.869 71.7468C118.853 71.8308 118.863 71.9176 118.897 71.9961C118.931 72.0746 118.987 72.1414 119.058 72.188C119.13 72.2346 119.214 72.259 119.299 72.2581C119.357 72.2595 119.415 72.2489 119.468 72.227C119.522 72.205 119.57 72.1722 119.611 72.1306C119.651 72.089 119.682 72.0395 119.702 71.9853C119.722 71.931 119.731 71.8732 119.728 71.8154Z" fill="white"/>
<path d="M120.299 71.1201H120.618V72.2674H121.313V72.5292H120.299V71.1201Z" fill="white"/>
<path d="M121.494 71.1205H122.122C122.218 71.1126 122.314 71.1246 122.405 71.1558C122.496 71.187 122.579 71.2367 122.65 71.3018C122.721 71.3669 122.777 71.446 122.816 71.534C122.855 71.622 122.875 71.7171 122.875 71.8132C122.875 71.9093 122.855 72.0044 122.816 72.0924C122.777 72.1804 122.721 72.2595 122.65 72.3246C122.579 72.3896 122.496 72.4394 122.405 72.4706C122.314 72.5018 122.218 72.5138 122.122 72.5058H121.494V71.1205ZM122.103 72.244C122.217 72.244 122.326 72.1989 122.406 72.1185C122.486 72.0382 122.531 71.9292 122.531 71.8156C122.531 71.7019 122.486 71.593 122.406 71.5126C122.326 71.4323 122.217 71.3871 122.103 71.3871H121.813V72.2678L122.103 72.244Z" fill="white"/>
<path d="M124.198 72.2679V72.5249H123.127V71.1396H124.174V71.3967H123.446V71.6966H124.079V71.9489H123.436V72.2679H124.198Z" fill="white"/>
<path d="M125.336 72.5054L125.069 72.1198H124.774V72.5054H124.455V71.1201H125.055C125.421 71.1201 125.654 71.3153 125.654 71.6247C125.655 71.7176 125.628 71.8086 125.577 71.8864C125.526 71.9642 125.454 72.0255 125.369 72.0627L125.678 72.5054H125.336ZM125.036 71.3819H124.774V71.858H125.031C125.226 71.858 125.326 71.7675 125.326 71.62C125.326 71.4724 125.231 71.3819 125.031 71.3819H125.036Z" fill="white"/>
<path d="M110.588 77.2181L110.93 76.8087C110.981 76.8918 111.05 76.9615 111.133 77.0121C111.216 77.0626 111.31 77.0924 111.406 77.0991C111.654 77.0991 111.783 76.9515 111.783 76.6611V75.3901H110.83V74.9141H112.378V76.6421C112.397 76.7732 112.387 76.9071 112.347 77.0334C112.306 77.1597 112.238 77.2751 112.145 77.3704C112.053 77.4658 111.94 77.5386 111.815 77.5832C111.691 77.6277 111.557 77.6429 111.425 77.6275C111.264 77.6268 111.105 77.5896 110.96 77.5188C110.815 77.4479 110.687 77.3451 110.588 77.2181Z" fill="white"/>
<path d="M112.811 77.2184C112.81 77.1699 112.818 77.1217 112.836 77.0766C112.854 77.0315 112.881 76.9906 112.916 76.9563C112.95 76.922 112.991 76.895 113.036 76.8771C113.081 76.8591 113.129 76.8505 113.178 76.8519C113.227 76.8499 113.275 76.858 113.321 76.8756C113.367 76.8933 113.408 76.9201 113.443 76.9545C113.478 76.9889 113.505 77.03 113.523 77.0754C113.542 77.1208 113.55 77.1695 113.549 77.2184C113.55 77.2675 113.542 77.3164 113.523 77.362C113.505 77.4077 113.478 77.4491 113.443 77.4839C113.408 77.5186 113.367 77.5459 113.321 77.5641C113.276 77.5823 113.227 77.591 113.178 77.5897C113.129 77.5911 113.08 77.5823 113.035 77.5641C112.989 77.5458 112.948 77.5185 112.914 77.4836C112.879 77.4488 112.853 77.4073 112.835 77.3617C112.817 77.3161 112.809 77.2673 112.811 77.2184Z" fill="white"/>
<path d="M117.89 74.8955L117.019 77.5613H116.353L115.767 75.7571L115.163 77.5613H114.506L113.63 74.8955H114.268L114.872 76.7711L115.501 74.8955H116.067L116.677 76.7997L117.3 74.8955H117.89Z" fill="white"/>
<path d="M118.138 74.8957C118.148 74.8051 118.192 74.7215 118.26 74.6607C118.328 74.6 118.416 74.5664 118.507 74.5664C118.598 74.5664 118.686 74.6 118.754 74.6607C118.822 74.7215 118.865 74.8051 118.876 74.8957C118.865 74.9864 118.822 75.07 118.754 75.1308C118.686 75.1915 118.598 75.2251 118.507 75.2251C118.416 75.2251 118.328 75.1915 118.26 75.1308C118.192 75.07 118.148 74.9864 118.138 74.8957ZM118.209 75.5146H118.804V77.5616H118.209V75.5146Z" fill="white"/>
<path d="M119.356 74.7383H119.947V77.5612H119.356V74.7383Z" fill="white"/>
<path d="M120.499 74.7383H121.094V77.5612H120.499V74.7383Z" fill="white"/>
<path d="M121.57 74.8956C121.571 74.8491 121.582 74.8033 121.601 74.7611C121.621 74.7188 121.649 74.6811 121.684 74.6503C121.719 74.6195 121.76 74.5962 121.804 74.5818C121.848 74.5675 121.895 74.5625 121.941 74.5671C121.987 74.5625 122.032 74.5673 122.076 74.5811C122.119 74.5949 122.159 74.6174 122.194 74.6473C122.228 74.6772 122.256 74.7138 122.276 74.7548C122.295 74.7959 122.306 74.8406 122.308 74.8861C122.298 74.9767 122.254 75.0604 122.186 75.1211C122.118 75.1818 122.03 75.2154 121.939 75.2154C121.848 75.2154 121.76 75.1818 121.692 75.1211C121.624 75.0604 121.58 74.9767 121.57 74.8861V74.8956ZM121.641 75.5144H122.237V77.5614H121.641V75.5144Z" fill="white"/>
<path d="M124.598 76.3947V77.561H124.045V77.3039C123.977 77.4036 123.883 77.4828 123.773 77.5331C123.663 77.5834 123.542 77.6029 123.422 77.5895C122.946 77.5895 122.655 77.323 122.655 76.9707C122.655 76.6184 122.908 76.3566 123.531 76.3566H124.007C124.007 76.1043 123.855 75.9567 123.531 75.9567C123.32 75.9536 123.114 76.0206 122.946 76.1471L122.731 75.7282C122.995 75.5615 123.301 75.4754 123.612 75.4807C124.236 75.4807 124.598 75.7711 124.598 76.3947ZM124.007 76.9136V76.7041H123.603C123.326 76.7041 123.236 76.8088 123.236 76.9469C123.236 77.0849 123.365 77.1944 123.574 77.1944C123.666 77.1981 123.758 77.1731 123.835 77.1228C123.913 77.0725 123.973 76.9994 124.007 76.9136Z" fill="white"/>
<path d="M128.592 76.3904V77.5615H128.001V76.4809C128.001 76.1477 127.849 76.0048 127.611 76.0048C127.373 76.0048 127.159 76.1762 127.159 76.5428V77.571H126.564V76.4904C126.564 76.1572 126.426 76.0144 126.178 76.0144C125.93 76.0144 125.726 76.1857 125.726 76.5523V77.5805H125.135V75.5336H125.702V75.7668C125.784 75.6792 125.884 75.6101 125.995 75.5641C126.105 75.5181 126.225 75.4964 126.345 75.5002C126.476 75.4937 126.607 75.5215 126.725 75.5807C126.842 75.6399 126.943 75.7287 127.016 75.8382C127.107 75.7304 127.221 75.6441 127.349 75.5857C127.478 75.5272 127.617 75.498 127.758 75.5002C127.875 75.4938 127.991 75.5129 128.098 75.5562C128.206 75.5995 128.303 75.6659 128.383 75.7508C128.462 75.8357 128.522 75.9369 128.558 76.0475C128.594 76.158 128.606 76.275 128.592 76.3904Z" fill="white"/>
<path d="M128.925 77.3706L129.125 76.9469C129.34 77.0728 129.585 77.1401 129.834 77.1421C130.11 77.1421 130.21 77.0707 130.21 76.9564C130.21 76.6232 128.973 76.9564 128.973 76.1471C128.973 75.7568 129.325 75.4807 129.925 75.4807C130.197 75.4764 130.467 75.5384 130.71 75.6616L130.51 76.0853C130.332 75.9834 130.13 75.9308 129.925 75.9329C129.658 75.9329 129.544 76.0138 129.544 76.1233C129.544 76.4708 130.777 76.1233 130.777 76.9421C130.777 77.323 130.425 77.5895 129.825 77.5895C129.511 77.5972 129.2 77.5216 128.925 77.3706Z" fill="white"/>
<path d="M152.812 76.3093C152.812 75.4287 153.289 74.9336 153.955 74.9336C154.621 74.9336 155.097 75.4096 155.097 76.3093C155.097 77.2091 154.621 77.6899 153.955 77.6899C153.289 77.6899 152.812 77.19 152.812 76.3093ZM154.474 76.3093C154.474 75.7048 154.264 75.4525 153.955 75.4525C153.646 75.4525 153.436 75.7048 153.436 76.3093C153.436 76.9139 153.65 77.1662 153.955 77.1662C154.26 77.1662 154.474 76.9139 154.474 76.3093Z" fill="white"/>
<path d="M157.592 76.7996C157.589 76.9257 157.56 77.0498 157.507 77.1642C157.454 77.2786 157.378 77.3808 157.284 77.4644C157.19 77.548 157.079 77.6112 156.959 77.65C156.839 77.6888 156.713 77.7023 156.587 77.6898C155.849 77.6898 155.392 77.2138 155.392 76.3664C155.373 76.18 155.395 75.9916 155.456 75.8143C155.517 75.6371 155.615 75.475 155.745 75.3394C155.874 75.2037 156.031 75.0976 156.205 75.0284C156.38 74.9592 156.567 74.9285 156.754 74.9383C157.013 74.93 157.27 74.9926 157.496 75.1192L157.268 75.5953C157.118 75.5015 156.944 75.4551 156.768 75.462C156.665 75.4553 156.563 75.471 156.467 75.5079C156.371 75.5449 156.284 75.6023 156.213 75.6761C156.141 75.7499 156.086 75.8384 156.052 75.9354C156.019 76.0324 156.006 76.1356 156.016 76.2379C156.105 76.1558 156.209 76.0925 156.323 76.0516C156.436 76.0107 156.557 75.9931 156.678 75.9999C156.791 75.9902 156.904 76.0033 157.012 76.0386C157.12 76.0739 157.219 76.1306 157.305 76.2053C157.39 76.2799 157.46 76.3711 157.509 76.4732C157.558 76.5753 157.586 76.6864 157.592 76.7996ZM156.997 76.833C156.996 76.776 156.984 76.7197 156.96 76.6678C156.937 76.6159 156.903 76.5695 156.86 76.5318C156.817 76.494 156.767 76.4657 156.713 76.4487C156.658 76.4317 156.601 76.4264 156.544 76.4331C156.486 76.4251 156.427 76.4293 156.371 76.4455C156.315 76.4618 156.262 76.4896 156.217 76.5273C156.173 76.565 156.136 76.6116 156.11 76.6643C156.085 76.717 156.07 76.7744 156.068 76.833C156.068 77.0615 156.24 77.2281 156.544 77.2281C156.601 77.2355 156.658 77.2309 156.712 77.2144C156.767 77.198 156.817 77.1702 156.86 77.1328C156.903 77.0954 156.937 77.0493 156.96 76.9976C156.984 76.9459 156.996 76.8898 156.997 76.833Z" fill="white"/>
<path d="M158.83 74.4385H159.363L158.106 78.023H157.578L158.83 74.4385Z" fill="white"/>
<path d="M161.334 77.1371V77.6417H159.306V77.2419L160.334 76.2898C160.572 76.066 160.615 75.928 160.615 75.8137C160.615 75.6043 160.468 75.4805 160.187 75.4805C160.08 75.4767 159.974 75.499 159.878 75.5454C159.781 75.5919 159.698 75.6611 159.634 75.7471L159.187 75.4615C159.31 75.301 159.471 75.1734 159.655 75.0904C159.84 75.0073 160.042 74.9712 160.244 74.9854C160.839 74.9854 161.234 75.2901 161.234 75.7709C161.231 75.9361 161.189 76.0983 161.112 76.2446C161.035 76.3909 160.926 76.5172 160.791 76.6135L160.177 77.1895L161.334 77.1371Z" fill="white"/>
<path d="M163.99 77.0807H163.556V77.6424H162.957V77.0807H161.529V76.6665L162.785 74.9766H163.433L162.266 76.5808H162.985V76.0762H163.566V76.5761H163.999L163.99 77.0807Z" fill="white"/>
<g opacity="0.2">
<path opacity="0.2" d="M152.827 54.0259C152.566 53.0873 151.984 52.2696 151.184 51.7148C150.383 51.16 149.413 50.9032 148.442 50.9888C147.831 51.0235 147.23 51.1653 146.667 51.4077C145.282 52.0266 144.315 53.6689 144.763 55.1161C145.139 56.2966 146.286 57.0488 147.424 57.5439C148.561 58.0389 150.009 58.4055 151.184 57.8533C151.739 57.5591 152.198 57.1113 152.505 56.5634C152.813 56.0156 152.956 55.3908 152.917 54.7638C152.911 54.5155 152.88 54.2684 152.827 54.0259Z" fill="white"/>
</g>
<g opacity="0.2">
<path opacity="0.2" d="M169.303 42.1582H106.465C106.172 42.1582 105.882 42.216 105.612 42.3282C105.341 42.4405 105.095 42.605 104.888 42.8124C104.681 43.0198 104.517 43.2659 104.406 43.5368C104.294 43.8076 104.237 44.0979 104.238 44.3908V55.6539C108.203 58.4245 113.654 58.91 118.49 57.9008C124.203 56.706 129.349 53.7926 134.675 51.4029C140.002 49.0132 145.82 47.1185 151.556 48.0706C156.973 48.9989 161.591 52.355 166.484 54.8684C168.093 55.7 169.776 56.3789 171.511 56.8964V44.3908C171.511 43.8028 171.279 43.2385 170.866 42.8205C170.452 42.4025 169.891 42.1645 169.303 42.1582Z" fill="white"/>
</g>
<path d="M35.0671 147.686C35.6472 144.606 35.4033 141.427 34.36 138.471C33.3168 135.515 31.5112 132.887 29.1262 130.853C29.1262 130.853 27.7456 130.349 27.8647 131.891C27.9361 132.814 27.0506 134.119 26.3128 133.552C25.0322 132.567 25.4369 130.558 24.8847 129.039C24.242 127.259 22.3474 126.312 20.6003 125.555C17.4013 124.151 14.15 122.794 10.713 122.17C7.27597 121.547 3.61049 121.694 0.473389 123.251C1.23505 124.784 1.99512 126.315 2.7536 127.845C2.81976 128.046 2.92508 128.232 3.06351 128.392C3.20193 128.552 3.37072 128.684 3.56013 128.778C3.74954 128.873 3.95584 128.929 4.16711 128.944C4.37837 128.959 4.59042 128.931 4.79105 128.863L8.95164 128.559C9.55621 128.516 10.3417 128.587 10.513 129.163C10.713 129.82 9.92751 130.31 9.28486 130.539L4.91959 132.105C6.37163 134.204 8.36784 135.868 10.6939 136.918C13.0123 137.956 15.4197 138.783 17.8869 139.389C18.6467 139.675 19.4727 139.738 20.2671 139.569C21.5381 139.16 22.4188 137.57 23.7422 137.765C23.6666 138.496 23.4468 139.204 23.0954 139.849C22.744 140.493 22.2681 141.062 21.6952 141.521C26.8412 143.54 30.4305 146.01 35.0243 147.71" fill="url(#paint2_linear)"/>
<path d="M39.4798 170.536C39.4798 170.536 39.4798 170.493 39.4417 170.402L39.3561 170.007C39.2799 169.645 39.1704 169.136 39.0371 168.489C38.7658 167.151 38.3849 165.247 37.9137 162.895C37.6804 161.715 37.4376 160.42 37.1472 159.035C37.0139 158.34 36.8711 157.606 36.7236 156.878L36.5046 155.755C36.4475 155.369 36.3951 154.979 36.338 154.584C35.8619 151.451 35.2907 147.957 33.7626 144.625C32.2345 141.293 29.7448 138.722 27.3884 136.618C25.2617 134.771 22.9935 133.093 20.6049 131.6C18.577 130.306 16.8918 129.334 15.7302 128.649L14.3973 127.859L14.0498 127.649C13.9737 127.602 13.9356 127.573 13.9403 127.568L14.0641 127.625L14.4211 127.816L15.7779 128.563C16.9537 129.225 18.6579 130.177 20.7001 131.453C23.1097 132.933 25.3972 134.602 27.5408 136.446C28.8017 137.543 29.9791 138.731 31.0635 140.002C32.2335 141.373 33.2178 142.892 33.9911 144.52C35.5335 147.895 36.0952 151.413 36.5617 154.55C36.6188 154.945 36.6712 155.331 36.7236 155.717C36.7759 156.102 36.8711 156.473 36.9378 156.845L37.3519 158.996C37.6138 160.386 37.8613 161.681 38.085 162.867C38.523 165.218 38.88 167.151 39.1323 168.474C39.2466 169.122 39.337 169.631 39.4037 169.998C39.4322 170.164 39.4513 170.293 39.4703 170.398C39.4788 170.443 39.4819 170.489 39.4798 170.536Z" fill="#B6B7C4"/>
<path d="M47.5536 112.864C46.4302 114.511 43.2931 113.711 43.0979 111.726C42.9027 109.741 45.8256 108.346 47.2489 109.751C47.746 103.924 47.1519 98.0556 45.4971 92.4467C45.1704 93.5973 44.6186 94.6716 43.8738 95.6076C43.0693 96.4882 41.7745 97.0357 40.6558 96.612C39.1468 96.0455 38.6993 93.9747 39.3277 92.4895C39.956 91.0043 41.3175 89.976 42.6171 89.0192C41.576 87.0656 40.1461 85.3457 38.4154 83.9654C36.6847 82.5851 34.6899 81.5736 32.5536 80.9932C30.878 83.7066 29.1785 86.4724 28.4264 89.5619C27.6742 92.6513 28.0122 96.1883 30.0782 98.6066C30.9589 99.6348 32.1204 100.439 32.8012 101.61C33.4819 102.781 33.4343 104.576 32.2347 105.205C30.8066 105.947 29.2309 104.548 28.4264 103.172C27.6219 101.796 26.8078 100.097 25.2321 99.8396C24.2801 110.827 29.9687 122.132 39.3657 127.926L39.2039 127.774C42.9347 123.397 45.7715 118.332 47.5536 112.864ZM40.3178 100.696C41.1556 99.9253 42.1562 99.3526 43.2455 99.0208C43.4642 98.9381 43.7034 98.9257 43.9295 98.9855C44.1557 99.0452 44.3575 99.174 44.507 99.354C44.6495 99.5382 44.7516 99.7505 44.8066 99.9769C44.8615 100.203 44.8681 100.439 44.8259 100.668C44.7372 101.126 44.5469 101.559 44.2689 101.934C43.8526 102.576 43.2681 103.092 42.579 103.424C42.2334 103.586 41.8563 103.67 41.4746 103.67C41.0928 103.67 40.7158 103.586 40.3702 103.424C40.1268 103.314 39.9167 103.142 39.7612 102.924C39.6058 102.707 39.5104 102.452 39.4847 102.186C39.51 101.893 39.5974 101.609 39.741 101.352C39.8846 101.095 40.0813 100.872 40.3178 100.696Z" fill="url(#paint3_linear)"/>
<path d="M41.5555 170.536C41.5492 170.479 41.5492 170.422 41.5555 170.365C41.5555 170.236 41.5555 170.07 41.5317 169.855C41.5317 169.379 41.4888 168.737 41.4555 167.904C41.3889 166.19 41.2936 163.743 41.1699 160.72C40.9033 154.656 40.4796 146.282 39.7941 137.047C39.1086 127.812 38.3232 119.462 37.6615 113.431C37.3425 110.412 37.0426 107.975 36.8379 106.29C36.7427 105.457 36.6665 104.805 36.6142 104.348L36.5618 103.843C36.5565 103.785 36.5565 103.726 36.5618 103.667C36.5814 103.722 36.5942 103.78 36.5999 103.838C36.5999 103.962 36.6427 104.129 36.6761 104.343C36.738 104.819 36.8284 105.447 36.9426 106.276C37.1759 107.961 37.4996 110.393 37.8424 113.416C38.5517 119.443 39.38 127.793 40.0512 137.033C40.7224 146.272 41.1318 154.646 41.3555 160.715C41.465 163.753 41.5317 166.204 41.565 167.904C41.565 168.742 41.565 169.398 41.5888 169.86V170.365C41.5849 170.423 41.5737 170.481 41.5555 170.536Z" fill="#B6B7C4"/>
<path d="M23.78 160.325L28.2119 179.124H51.4379L56.3506 160.325H23.78Z" fill="#B6B7C4"/>
<path d="M31.0825 175.173C31.0825 175.53 32.8819 186.307 32.8819 186.307H47.0108L48.5674 175.173H31.0825Z" fill="#B6B7C4"/>
<path d="M50.7954 179.038C50.7954 179.104 45.7256 179.162 39.4752 179.162C33.2248 179.162 28.155 179.104 28.155 179.038C28.155 178.971 33.2201 178.914 39.4752 178.914C45.7304 178.914 50.7954 178.966 50.7954 179.038Z" fill="#B6B7C4"/>
<path d="M53.214 171.46C53.214 171.526 47.2349 171.583 39.8849 171.583C32.5348 171.583 26.532 171.526 26.532 171.46C26.532 171.393 32.511 171.336 39.8849 171.336C47.2587 171.336 53.214 171.388 53.214 171.46Z" fill="#B6B7C4"/>
<path d="M52.1615 174.078C52.1615 174.145 46.5347 174.202 39.594 174.202C32.6534 174.202 27.0266 174.145 27.0266 174.078C27.0266 174.011 32.6534 173.954 39.594 173.954C46.5347 173.954 52.1615 174.006 52.1615 174.078Z" fill="#B6B7C4"/>
<path d="M52.0901 176.696C52.0901 176.763 46.6633 176.82 39.9749 176.82C33.2866 176.82 27.855 176.763 27.855 176.696C27.855 176.629 33.2818 176.572 39.9749 176.572C46.668 176.572 52.0901 176.625 52.0901 176.696Z" fill="#B6B7C4"/>
<path d="M53.8849 168.903C53.8849 168.97 47.6393 169.027 39.937 169.027C32.2346 169.027 25.9795 168.984 25.9795 168.903C25.9795 168.822 32.2251 168.774 39.9322 168.774C47.6393 168.774 53.8849 168.846 53.8849 168.903Z" fill="#B6B7C4"/>
<path d="M54.3326 166.823C54.3326 166.89 47.9727 166.947 40.1229 166.947C32.273 166.947 25.9131 166.89 25.9131 166.823C25.9131 166.756 32.273 166.699 40.1229 166.699C47.9727 166.699 54.3326 166.752 54.3326 166.823Z" fill="#B6B7C4"/>
<defs>
<linearGradient id="paint0_linear" x1="106.722" y1="147.683" x2="165.417" y2="178.413" gradientUnits="userSpaceOnUse">
<stop stop-color="#FFB932"/>
<stop offset="1" stop-color="#FFB040"/>
</linearGradient>
<linearGradient id="paint1_linear" x1="104.222" y1="147.683" x2="162.917" y2="178.413" gradientUnits="userSpaceOnUse">
<stop stop-color="#FFB932"/>
<stop offset="1" stop-color="#FFB040"/>
</linearGradient>
<linearGradient id="paint2_linear" x1="-2.35643" y1="121.826" x2="26.3435" y2="155.02" gradientUnits="userSpaceOnUse">
<stop stop-color="#26CFA7"/>
<stop offset="1" stop-color="#12DD94"/>
</linearGradient>
<linearGradient id="paint3_linear" x1="23.3104" y1="80.9932" x2="60.219" y2="96.1199" gradientUnits="userSpaceOnUse">
<stop stop-color="#26CFA7"/>
<stop offset="1" stop-color="#12DD94"/>
</linearGradient>
</defs>
</svg>
