<svg width="406" height="406" viewBox="0 0 406 406" fill="none" xmlns="http://www.w3.org/2000/svg">
<path opacity="0.15" d="M230.564 368.857C326.703 363.655 380.625 313.286 380.625 193.484C380.625 73.6824 255.558 -6.34405 187.601 65.8003C96.0285 162.939 25.375 165.683 25.375 214.307C25.375 324.229 160.449 372.695 230.564 368.857Z" fill="#58A5FF"/>
<path opacity="0.15" d="M115.631 103.387C90.3987 129 55.6667 138.849 44.8664 114.441C34.0662 90.0334 116.995 25.0576 140.023 38.8235C162.369 52.1771 130.777 88.0351 115.631 103.387Z" fill="#58A5FF"/>
<path d="M303.517 85.2288V347.987C303.505 353.98 301.117 359.723 296.878 363.959C292.639 368.195 286.894 370.578 280.902 370.586H146.668C143.7 370.589 140.76 370.005 138.017 368.87C135.274 367.735 132.782 366.071 130.683 363.972C128.584 361.873 126.919 359.381 125.784 356.638C124.649 353.895 124.066 350.955 124.068 347.987V85.2288C124.066 82.2596 124.649 79.3191 125.784 76.5754C126.919 73.8316 128.583 71.3384 130.682 69.2382C132.781 67.1379 135.273 65.4718 138.016 64.3351C140.759 63.1984 143.699 62.6133 146.668 62.6133H280.902C286.9 62.6133 292.652 64.996 296.893 69.2372C301.134 73.4784 303.517 79.2308 303.517 85.2288Z" fill="#093459"/>
<path d="M292.97 89.4473V344.561C292.97 348.347 291.467 351.977 288.79 354.654C286.113 357.331 282.482 358.835 278.697 358.835H148.84C145.055 358.835 141.424 357.331 138.747 354.654C136.071 351.977 134.567 348.347 134.567 344.561V89.4473C134.567 85.6617 136.071 82.0312 138.747 79.3544C141.424 76.6776 145.055 75.1738 148.84 75.1738H168.316L170.076 80.6295C170.559 82.1451 171.513 83.4671 172.8 84.4027C174.086 85.3384 175.638 85.8389 177.229 85.8313H250.34C251.931 85.8324 253.482 85.3296 254.77 84.3952C256.058 83.4607 257.016 82.1424 257.509 80.6295L259.253 75.1738H278.729C282.509 75.1822 286.131 76.6897 288.801 79.3656C291.471 82.0415 292.97 85.6672 292.97 89.4473Z" fill="white"/>
<path opacity="0.2" d="M303.517 247.406V323.531H264.17L251.038 339.819C250.719 340.213 250.315 340.531 249.857 340.749C249.399 340.968 248.897 341.081 248.39 341.081C247.882 341.081 247.381 340.968 246.923 340.749C246.465 340.531 246.061 340.213 245.741 339.819L232.61 323.531H226.266C223.456 323.531 220.762 322.415 218.775 320.428C216.788 318.442 215.672 315.747 215.672 312.937V258.064C215.672 255.254 216.788 252.559 218.775 250.573C220.762 248.586 223.456 247.47 226.266 247.47L303.517 247.406Z" fill="#231F20"/>
<path d="M295.555 239.018H219.525C216.718 239.022 214.028 240.14 212.045 242.126C210.061 244.112 208.947 246.805 208.947 249.612V304.501C208.947 307.308 210.061 310 212.045 311.986C214.028 313.973 216.718 315.091 219.525 315.095H225.869L239.001 331.383C239.32 331.777 239.724 332.095 240.182 332.313C240.641 332.532 241.142 332.645 241.649 332.645C242.157 332.645 242.658 332.532 243.116 332.313C243.574 332.095 243.978 331.777 244.298 331.383L257.445 315.095H295.508C298.315 315.091 301.005 313.973 302.989 311.986C304.972 310 306.086 307.308 306.086 304.501V249.627C306.09 246.826 304.985 244.137 303.011 242.148C301.038 240.16 298.357 239.034 295.555 239.018Z" fill="#2067A5"/>
<path d="M250.578 303.248C248.25 303.248 245.944 302.789 243.793 301.898C241.642 301.007 239.687 299.701 238.041 298.054C236.394 296.408 235.088 294.453 234.197 292.302C233.306 290.151 232.848 287.845 232.848 285.517C232.848 283.188 233.306 280.883 234.197 278.731C235.088 276.58 236.394 274.626 238.041 272.979C239.687 271.333 241.642 270.027 243.793 269.136C245.944 268.245 248.25 267.786 250.578 267.786V276.858C248.865 276.854 247.189 277.36 245.763 278.309C244.337 279.259 243.225 280.61 242.567 282.192C241.909 283.774 241.735 285.516 242.068 287.196C242.4 288.877 243.224 290.422 244.434 291.634C245.644 292.847 247.187 293.673 248.867 294.008C250.548 294.344 252.289 294.173 253.873 293.518C255.456 292.863 256.809 291.754 257.761 290.329C258.714 288.905 259.222 287.23 259.222 285.517V249.69H267.738C270.387 254.448 276.223 261.49 280.299 261.49V270.561C275.763 270.561 271.64 268.071 268.309 265.011V285.469C268.313 287.801 267.858 290.111 266.969 292.267C266.08 294.422 264.775 296.382 263.128 298.033C261.481 299.684 259.526 300.994 257.372 301.889C255.219 302.784 252.91 303.245 250.578 303.248Z" fill="white"/>
<path opacity="0.2" d="M180.448 174.248V234.037C180.448 237.097 179.234 240.031 177.072 242.196C174.911 244.361 171.978 245.579 168.919 245.583H161.988L147.715 263.33C147.367 263.76 146.927 264.107 146.428 264.346C145.928 264.584 145.382 264.708 144.828 264.708C144.275 264.708 143.728 264.584 143.229 264.346C142.729 264.107 142.29 263.76 141.942 263.33L127.668 245.583H127.573V162.718H168.998C172.042 162.739 174.954 163.963 177.099 166.123C179.245 168.283 180.448 171.203 180.448 174.248Z" fill="#231F20"/>
<path d="M79.2971 153.646H162.115C165.177 153.646 168.114 154.863 170.279 157.028C172.444 159.193 173.66 162.13 173.66 165.192V224.982C173.656 228.041 172.438 230.974 170.273 233.136C168.108 235.297 165.174 236.512 162.115 236.512H155.137L140.863 254.258C140.515 254.689 140.076 255.036 139.576 255.275C139.077 255.513 138.53 255.637 137.977 255.637C137.423 255.637 136.877 255.513 136.377 255.275C135.878 255.036 135.438 254.689 135.09 254.258L120.817 236.512H79.2971C76.2377 236.512 73.3035 235.297 71.1387 233.136C68.9739 230.974 67.7557 228.041 67.7515 224.982V165.192C67.7515 163.676 68.0501 162.175 68.6303 160.774C69.2105 159.373 70.061 158.1 71.1331 157.028C72.2052 155.956 73.478 155.106 74.8788 154.525C76.2795 153.945 77.7809 153.646 79.2971 153.646Z" fill="url(#paint0_linear)"/>
<path d="M141.561 170.552H97.4403C94.1482 170.556 90.9921 171.866 88.6642 174.194C86.3363 176.521 85.0267 179.678 85.0225 182.97V205.997C85.0267 209.29 86.3363 212.446 88.6642 214.774C90.9921 217.102 94.1482 218.411 97.4403 218.415H141.561C144.852 218.411 148.006 217.101 150.332 214.773C152.657 212.444 153.963 209.288 153.963 205.997V182.97C153.963 179.679 152.657 176.523 150.332 174.194C148.006 171.866 144.852 170.556 141.561 170.552ZM112.491 205.078V183.858L130.666 194.484L112.491 205.078Z" fill="white"/>
<path opacity="0.2" d="M303.517 111.556V194.77H283.962L269.61 212.596C269.259 213.027 268.816 213.374 268.314 213.613C267.812 213.851 267.263 213.975 266.707 213.975C266.152 213.975 265.603 213.851 265.101 213.613C264.599 213.374 264.156 213.027 263.805 212.596L249.437 194.77H242.49C239.415 194.77 236.467 193.548 234.293 191.374C232.118 189.2 230.897 186.251 230.897 183.177V123.149C230.897 120.074 232.118 117.125 234.293 114.951C236.467 112.777 239.415 111.556 242.49 111.556H303.517Z" fill="#231F20"/>
<path d="M318.298 102.468H235.115C232.045 102.468 229.1 103.688 226.929 105.859C224.758 108.03 223.538 110.975 223.538 114.045V174.073C223.536 175.595 223.834 177.102 224.415 178.508C224.996 179.915 225.848 181.193 226.923 182.27C227.999 183.346 229.276 184.2 230.681 184.783C232.087 185.366 233.594 185.666 235.115 185.666H242.078L256.446 203.476C256.794 203.909 257.235 204.259 257.736 204.499C258.237 204.74 258.785 204.865 259.341 204.865C259.896 204.865 260.445 204.74 260.946 204.499C261.447 204.259 261.887 203.909 262.235 203.476L276.619 185.666H318.298C319.82 185.666 321.326 185.366 322.732 184.783C324.138 184.2 325.415 183.346 326.49 182.27C327.565 181.193 328.418 179.915 328.999 178.508C329.579 177.102 329.877 175.595 329.875 174.073V114.045C329.875 112.525 329.576 111.019 328.994 109.615C328.412 108.21 327.559 106.934 326.484 105.859C325.409 104.784 324.133 103.931 322.728 103.349C321.324 102.767 319.818 102.468 318.298 102.468Z" fill="#D144B2"/>
<path d="M290.02 170.457H262.33C258.836 170.453 255.486 169.063 253.016 166.592C250.545 164.122 249.155 160.772 249.151 157.278V129.587C249.155 126.093 250.545 122.744 253.016 120.273C255.486 117.802 258.836 116.412 262.33 116.408H290.02C293.514 116.412 296.864 117.802 299.335 120.273C301.806 122.744 303.195 126.093 303.2 129.587V157.278C303.195 160.772 301.806 164.122 299.335 166.592C296.864 169.063 293.514 170.453 290.02 170.457ZM262.33 120.881C260.019 120.881 257.803 121.797 256.168 123.43C254.532 125.062 253.612 127.277 253.607 129.587V157.278C253.612 159.59 254.532 161.806 256.167 163.441C257.802 165.076 260.018 165.996 262.33 166H290.02C292.333 165.996 294.549 165.076 296.184 163.441C297.819 161.806 298.739 159.59 298.743 157.278V129.587C298.739 127.277 297.818 125.062 296.183 123.43C294.547 121.797 292.331 120.881 290.02 120.881H262.33Z" fill="#FFFDFD"/>
<path d="M290.734 131.269C292.565 131.269 294.049 129.785 294.049 127.954C294.049 126.124 292.565 124.64 290.734 124.64C288.903 124.64 287.419 126.124 287.419 127.954C287.419 129.785 288.903 131.269 290.734 131.269Z" fill="#FFFDFD"/>
<path d="M275.954 157.278C273.105 157.278 270.32 156.433 267.952 154.85C265.583 153.267 263.737 151.017 262.648 148.385C261.558 145.753 261.274 142.856 261.831 140.063C262.388 137.269 263.761 134.703 265.777 132.69C267.792 130.676 270.359 129.306 273.154 128.752C275.948 128.198 278.844 128.486 281.475 129.578C284.106 130.671 286.354 132.519 287.935 134.889C289.515 137.259 290.357 140.045 290.354 142.894C290.35 146.71 288.831 150.369 286.13 153.066C283.43 155.763 279.77 157.278 275.954 157.278ZM275.954 132.95C273.987 132.95 272.064 133.533 270.429 134.626C268.794 135.718 267.519 137.271 266.767 139.088C266.014 140.905 265.817 142.905 266.201 144.834C266.584 146.763 267.532 148.534 268.922 149.925C270.313 151.316 272.085 152.263 274.014 152.646C275.942 153.03 277.942 152.833 279.759 152.081C281.576 151.328 283.129 150.053 284.222 148.418C285.314 146.783 285.897 144.86 285.897 142.894C285.897 140.256 284.85 137.727 282.985 135.862C281.12 133.998 278.591 132.95 275.954 132.95Z" fill="#FFFDFD"/>
<defs>
<linearGradient id="paint0_linear" x1="173.66" y1="172.092" x2="60.9239" y2="244.954" gradientUnits="userSpaceOnUse">
<stop stop-color="#FF9393"/>
<stop offset="1" stop-color="#E85F5F"/>
</linearGradient>
</defs>
</svg>
