<svg width="406" height="406" viewBox="0 0 406 406" fill="none" xmlns="http://www.w3.org/2000/svg">
<path opacity="0.15" d="M173.232 370.094C77.0764 365.035 57.8073 329.875 30.9573 216.925C4.75766 106.369 157.832 -13.3377 225.79 56.5229C317.362 150.632 378.04 162.162 378.04 209.265C378.04 315.76 243.346 373.774 173.232 370.094Z" fill="#58A5FF"/>
<path d="M380.625 237.208C380.625 245.245 379.042 253.204 375.967 260.629C372.891 268.054 368.383 274.801 362.7 280.484C357.017 286.167 350.27 290.675 342.845 293.751C335.419 296.827 327.461 298.41 319.424 298.41H79.9315C66.3282 298.391 53.2225 293.292 43.1845 284.111C33.1466 274.93 26.9006 262.33 25.6715 248.783C24.4424 235.235 28.3189 221.717 36.5408 210.88C44.7626 200.042 56.7366 192.667 70.1145 190.201C69.62 186.298 69.3658 182.368 69.3533 178.434C69.3572 157.886 76.0619 137.901 88.4505 121.509C100.839 105.116 118.236 93.2113 138.002 87.5995C157.768 81.9876 178.825 82.9751 197.979 90.4121C217.133 97.8491 233.339 111.33 244.139 128.81C252.47 124.072 261.898 121.602 271.482 121.646C281.065 121.691 290.47 124.248 298.756 129.063C307.042 133.878 313.921 140.782 318.705 149.086C323.49 157.39 326.012 166.804 326.021 176.388C341.02 178.011 354.89 185.117 364.969 196.343C375.047 207.569 380.623 222.122 380.625 237.208Z" fill="url(#paint0_linear)"/>
<path d="M380.625 228.597C380.625 244.829 374.177 260.395 362.7 271.873C351.222 283.35 335.655 289.798 319.424 289.798H79.9315C66.3282 289.78 53.2225 284.681 43.1845 275.5C33.1466 266.319 26.9006 253.719 25.6715 240.171C24.4424 226.624 28.3189 213.106 36.5408 202.268C44.7626 191.431 56.7366 184.056 70.1145 181.59C69.62 177.687 69.3658 173.757 69.3533 169.822C69.3572 149.275 76.0619 129.29 88.4505 112.897C100.839 96.5049 118.236 84.6 138.002 78.9881C157.768 73.3763 178.825 74.3638 197.979 81.8008C217.133 89.2377 233.339 102.718 244.139 120.198C252.47 115.46 261.898 112.991 271.482 113.035C281.065 113.079 290.47 115.637 298.756 120.452C307.042 125.267 313.921 132.171 318.705 140.475C323.49 148.779 326.012 158.193 326.021 167.776C341.02 169.399 354.89 176.506 364.969 187.732C375.047 198.958 380.623 213.511 380.625 228.597Z" fill="url(#paint1_linear)"/>
<path d="M353 226.76C353 240.085 347.572 252.863 337.91 262.285C328.248 271.707 315.143 277 301.479 277H99.8658C88.4141 276.985 77.3813 272.799 68.931 265.262C60.4807 257.726 55.2226 247.383 54.1879 236.262C53.1533 225.141 56.4166 214.044 63.3381 205.147C70.2595 196.251 80.3396 190.197 91.6016 188.173C91.1853 184.968 90.9713 181.742 90.9607 178.513C90.964 161.646 96.6083 145.24 107.037 131.783C117.467 118.327 132.112 108.554 148.751 103.948C165.391 99.3409 183.118 100.151 199.242 106.256C215.367 112.361 229.01 123.428 238.102 137.777C245.115 133.887 253.051 131.86 261.119 131.896C269.187 131.933 277.104 134.032 284.08 137.985C291.055 141.937 296.846 147.605 300.874 154.421C304.901 161.238 307.025 168.966 307.033 176.833C319.659 178.165 331.336 183.999 339.82 193.214C348.304 202.429 352.998 214.376 353 226.76Z" fill="white" fill-opacity="0.1"/>
<path opacity="0.2" d="M271.195 268.182H248.025V298.41H175.072V268.182H151.743C151.113 268.181 150.495 268.007 149.957 267.679C149.419 267.351 148.982 266.882 148.692 266.322C148.403 265.763 148.272 265.134 148.315 264.506C148.358 263.877 148.573 263.273 148.935 262.758L208.694 177.767C209.011 177.316 209.433 176.947 209.923 176.693C210.413 176.438 210.957 176.306 211.509 176.306C212.061 176.306 212.605 176.438 213.095 176.693C213.585 176.947 214.006 177.316 214.324 177.767L274.082 262.758C274.449 263.278 274.664 263.89 274.704 264.526C274.744 265.161 274.606 265.796 274.307 266.358C274.008 266.92 273.559 267.388 273.009 267.71C272.46 268.032 271.832 268.195 271.195 268.182Z" fill="url(#paint2_linear)"/>
<path d="M265.233 249.484L205.475 164.494C205.157 164.042 204.735 163.674 204.245 163.419C203.756 163.165 203.212 163.032 202.66 163.032C202.107 163.032 201.563 163.165 201.074 163.419C200.584 163.674 200.162 164.042 199.844 164.494L140.086 249.484C139.723 249.999 139.509 250.604 139.466 251.232C139.423 251.861 139.554 252.489 139.843 253.049C140.133 253.608 140.57 254.077 141.108 254.405C141.646 254.733 142.264 254.907 142.893 254.908H166.143V341.453C166.143 342.366 166.506 343.241 167.151 343.886C167.797 344.532 168.672 344.894 169.585 344.894H235.718C236.631 344.894 237.506 344.532 238.152 343.886C238.797 343.241 239.16 342.366 239.16 341.453V254.908H262.41C263.041 254.91 263.661 254.738 264.201 254.411C264.741 254.085 265.181 253.616 265.472 253.056C265.764 252.496 265.896 251.866 265.853 251.236C265.811 250.607 265.596 250 265.233 249.484Z" fill="white"/>
<defs>
<linearGradient id="paint0_linear" x1="-3.34989" y1="84.0088" x2="222.799" y2="405.356" gradientUnits="userSpaceOnUse">
<stop stop-color="#02C798"/>
<stop offset="1" stop-color="#11CD89"/>
</linearGradient>
<linearGradient id="paint1_linear" x1="-3.34989" y1="75.3975" x2="222.799" y2="396.745" gradientUnits="userSpaceOnUse">
<stop stop-color="#26CFA7"/>
<stop offset="1" stop-color="#12DD94"/>
</linearGradient>
<linearGradient id="paint2_linear" x1="138.058" y1="176.306" x2="273.923" y2="296.948" gradientUnits="userSpaceOnUse">
<stop stop-color="#26CFA7"/>
<stop offset="1" stop-color="#12DD94"/>
</linearGradient>
</defs>
</svg>
