<svg width="57" height="19" viewBox="0 0 57 19" fill="none" xmlns="http://www.w3.org/2000/svg">
<path fill-rule="evenodd" clip-rule="evenodd" d="M14.2398 18.0361H9.31053L5.6142 3.93436C5.43875 3.28568 5.06624 2.71221 4.51827 2.44193C3.15078 1.7627 1.64388 1.22213 0 0.949497V0.406581H7.94063C9.03655 0.406581 9.85849 1.22213 9.99548 2.1693L11.9133 12.3413L16.8402 0.406581H21.6324L14.2398 18.0361ZM24.3719 18.0361H19.7166L23.55 0.406581H28.2052L24.3719 18.0361ZM34.228 5.29049C34.365 4.34098 35.1869 3.79806 36.1458 3.79806C37.6527 3.66175 39.2942 3.93438 40.6641 4.61126L41.4861 0.815549C40.1161 0.272633 38.6093 0 37.2418 0C32.7235 0 29.4357 2.44195 29.4357 5.83106C29.4357 8.40932 31.7645 9.76309 33.4084 10.5786C35.1869 11.3918 35.8718 11.9348 35.7349 12.748C35.7349 13.9678 34.365 14.5107 32.9975 14.5107C31.3536 14.5107 29.7097 14.1041 28.2052 13.4248L27.3832 17.2229C29.0271 17.8998 30.8056 18.1724 32.4495 18.1724C37.5157 18.3064 40.6641 15.8668 40.6641 12.205C40.6641 7.59377 34.228 7.32349 34.228 5.29049ZM56.9564 18.0361L53.2601 0.406581H49.2898C48.4679 0.406581 47.6459 0.949497 47.3719 1.7627L40.5273 18.0361H45.3195L46.276 15.4602H52.1642L52.7121 18.0361H56.9564ZM49.9754 5.15422L51.3429 11.7985H47.5096L49.9754 5.15422Z" fill="#172B85"/>
</svg>
