<svg width="39" height="30" viewBox="0 0 39 30" fill="none" xmlns="http://www.w3.org/2000/svg">
<path fill-rule="evenodd" clip-rule="evenodd" d="M11.8393 20.3228H9.47668L7.70499 12.7405C7.6209 12.3917 7.44234 12.0833 7.1797 11.938C6.52424 11.5728 5.80197 11.2821 5.01404 11.1355V10.8436H8.82007C9.34536 10.8436 9.73933 11.2821 9.80499 11.7914L10.7242 17.2608L13.0857 10.8436H15.3827L11.8393 20.3228ZM16.6958 20.3228H14.4644L16.3018 10.8436H18.5331L16.6958 20.3228ZM21.4199 13.4696C21.4855 12.9591 21.8795 12.6672 22.3391 12.6672C23.0614 12.5939 23.8482 12.7405 24.5048 13.1044L24.8988 11.0635C24.2421 10.7716 23.5199 10.625 22.8644 10.625C20.6988 10.625 19.1229 11.938 19.1229 13.7603C19.1229 15.1466 20.2391 15.8745 21.0271 16.313C21.8795 16.7503 22.2078 17.0422 22.1421 17.4794C22.1421 18.1353 21.4855 18.4272 20.8301 18.4272C20.0421 18.4272 19.2542 18.2086 18.5331 17.8434L18.1391 19.8856C18.9271 20.2495 19.7795 20.3961 20.5674 20.3961C22.9957 20.4681 24.5048 19.1564 24.5048 17.1875C24.5048 14.7081 21.4199 14.5628 21.4199 13.4696ZM32.3139 20.3228L30.5422 10.8436H28.6392C28.2453 10.8436 27.8513 11.1355 27.72 11.5728L24.4392 20.3228H26.7362L27.1947 18.9378H30.017L30.2796 20.3228H32.3139ZM28.9678 13.3964L29.6233 16.9689H27.7859L28.9678 13.3964Z" fill="#172B85"/>
</svg>
